<svg xmlns="http://www.w3.org/2000/svg" xmlns:xlink="http://www.w3.org/1999/xlink" width="1080" zoomAndPan="magnify" viewBox="0 0 810 809.999993" height="1080" preserveAspectRatio="xMidYMid meet" version="1.0"><defs><clipPath id="eeae76751b"><path d="M 204.664062 0 L 376 0 L 376 618 L 204.664062 618 Z M 204.664062 0 " clip-rule="nonzero"/></clipPath></defs><g clip-path="url(#eeae76751b)"><path fill="#31086a" d="M 368.820312 293.242188 L 368.929688 292.535156 C 370.105469 287.441406 370.503906 281.929688 369.816406 276.398438 C 369.617188 274.980469 370.703125 273.695312 372.097656 273.542969 C 373.492188 273.363281 374.773438 274.382812 374.972656 275.800781 C 375.660156 281.953125 375.261719 288.085938 373.890625 293.773438 C 373.492188 295.167969 372.097656 295.988281 370.703125 295.65625 C 369.617188 295.367188 368.820312 294.347656 368.820312 293.242188 Z M 348.277344 240.582031 C 348.277344 240.074219 348.390625 239.542969 348.675781 239.078125 C 349.472656 237.902344 351.066406 237.570312 352.261719 238.367188 C 354.433594 239.761719 356.425781 241.3125 358.304688 242.972656 C 360.894531 245.253906 363.265625 247.886719 365.34375 250.785156 C 366.140625 251.9375 365.941406 253.53125 364.746094 254.371094 C 363.574219 255.214844 361.980469 254.949219 361.183594 253.796875 C 359.300781 251.207031 357.222656 248.859375 354.941406 246.824219 C 353.148438 245.320312 351.355469 243.925781 349.472656 242.664062 C 348.675781 242.175781 348.277344 241.402344 348.277344 240.582031 Z M 339.757812 321.929688 C 339.757812 320.757812 340.441406 319.671875 341.636719 319.363281 C 347.082031 317.902344 351.953125 315.554688 356.113281 312.367188 C 357.222656 311.480469 358.792969 311.703125 359.699219 312.808594 C 360.585938 313.9375 360.386719 315.554688 359.191406 316.441406 C 354.542969 320.046875 349.074219 322.703125 343.03125 324.34375 C 341.636719 324.695312 340.15625 323.878906 339.84375 322.503906 Z M 345.402344 604.375 C 345.3125 603.757812 345.511719 603.113281 346 602.605469 C 346.90625 601.542969 348.589844 601.433594 349.671875 602.363281 C 353.945312 606.101562 358.304688 609.800781 362.777344 613.320312 C 363.863281 614.226562 364.0625 615.84375 363.175781 616.949219 C 362.269531 618.054688 360.585938 618.234375 359.5 617.347656 C 355.03125 613.785156 350.558594 610.042969 346.199219 606.234375 C 345.710938 605.75 345.402344 605.085938 345.402344 604.375 Z M 307.21875 231.328125 C 307.21875 230 308.191406 228.828125 309.496094 228.695312 C 311.269531 228.519531 313.0625 228.40625 314.855469 228.339844 C 319.015625 228.207031 323.175781 228.453125 327.25 229.050781 C 328.734375 229.25 329.640625 230.554688 329.441406 231.972656 C 329.242188 233.367188 327.9375 234.339844 326.5625 234.140625 C 322.777344 233.585938 318.925781 233.386719 314.941406 233.5 C 313.371094 233.542969 311.667969 233.652344 310.09375 233.832031 C 308.589844 233.964844 307.304688 232.945312 307.21875 231.527344 Z M 314.257812 574.714844 C 314.257812 574.027344 314.542969 573.296875 315.054688 572.789062 C 316.136719 571.792969 317.730469 571.835938 318.726562 572.855469 C 322.691406 576.972656 326.652344 581.046875 330.726562 585.007812 C 331.808594 586.003906 331.808594 587.621094 330.8125 588.636719 C 329.839844 589.65625 328.136719 589.679688 327.160156 588.683594 C 323.089844 584.699219 318.925781 580.558594 315.054688 576.417969 C 314.542969 575.953125 314.34375 575.335938 314.257812 574.714844 Z M 298.074219 316.726562 L 298.386719 315.488281 C 298.984375 314.203125 300.554688 313.71875 301.859375 314.382812 C 302.4375 314.691406 303.035156 314.980469 303.632812 315.265625 C 307.902344 317.347656 312.464844 318.875 317.332031 319.847656 C 318.726562 320.136719 319.613281 321.488281 319.304688 322.882812 C 319.015625 324.277344 317.621094 325.183594 316.226562 324.894531 C 311.070312 323.855469 306.023438 322.171875 301.351562 319.914062 C 300.753906 319.605469 300.066406 319.273438 299.46875 318.941406 C 298.585938 318.5 298.074219 317.636719 298.074219 316.726562 Z M 286.078125 542.308594 C 286.078125 541.511719 286.367188 540.714844 287.074219 540.207031 C 288.160156 539.320312 289.839844 539.496094 290.75 540.625 C 294.203125 545.054688 297.875 549.503906 301.550781 553.839844 C 302.4375 554.925781 302.347656 556.542969 301.261719 557.472656 C 300.15625 558.402344 298.585938 558.269531 297.589844 557.183594 C 293.914062 552.777344 290.152344 548.285156 286.675781 543.8125 C 286.277344 543.371094 286.078125 542.839844 286.078125 542.308594 Z M 268.015625 247.511719 C 268.015625 246.714844 268.324219 245.917969 269.011719 245.386719 C 273.769531 241.710938 278.839844 238.566406 283.996094 236.023438 C 285.28125 235.378906 286.765625 235.910156 287.472656 237.195312 C 288.070312 238.480469 287.5625 240.007812 286.277344 240.648438 C 281.40625 243.039062 276.648438 246.003906 272.175781 249.480469 C 271.09375 250.34375 269.410156 250.121094 268.523438 249.015625 C 268.214844 248.550781 268.015625 248.042969 268.015625 247.511719 Z M 266.023438 288.617188 C 266.023438 287.820312 266.332031 287.023438 267.019531 286.492188 C 268.125 285.628906 269.808594 285.828125 270.605469 286.933594 C 274.367188 291.714844 278.042969 295.832031 281.804688 299.550781 C 282.800781 300.546875 282.800781 302.164062 281.804688 303.203125 C 280.808594 304.199219 279.238281 304.222656 278.132812 303.226562 C 274.257812 299.351562 270.40625 295.058594 266.53125 290.121094 C 266.222656 289.65625 266.023438 289.148438 266.023438 288.617188 Z M 261.265625 507.246094 C 261.265625 506.359375 261.664062 505.476562 262.460938 504.964844 C 263.742188 504.214844 265.335938 504.589844 266.023438 505.785156 C 269.011719 510.523438 272.175781 515.324219 275.453125 520.019531 C 276.25 521.191406 275.960938 522.808594 274.765625 523.605469 C 273.683594 524.421875 271.976562 524.136719 271.203125 522.960938 C 267.925781 518.179688 264.738281 513.332031 261.664062 508.53125 Z M 240.148438 279.871094 L 240.546875 278.5 C 243.3125 273.71875 246.390625 269.203125 249.667969 264.996094 C 247.386719 261.257812 245.195312 257.449219 243.226562 253.640625 C 242.515625 252.402344 242.914062 250.832031 244.199219 250.144531 C 245.503906 249.457031 246.988281 249.921875 247.675781 251.183594 C 250.351562 256.144531 253.230469 261.101562 256.21875 265.925781 C 257.015625 267.144531 256.617188 268.714844 255.421875 269.46875 C 254.535156 270 253.539062 269.957031 252.742188 269.492188 C 249.953125 273.121094 247.386719 277.039062 244.996094 281.113281 C 244.199219 282.351562 242.628906 282.75 241.433594 282.019531 C 240.636719 281.554688 240.238281 280.734375 240.148438 279.871094 Z M 240.722656 469.59375 C 240.636719 468.597656 241.234375 467.625 242.230469 467.179688 C 243.511719 466.582031 244.996094 467.136719 245.59375 468.421875 C 247.984375 473.46875 250.550781 478.601562 253.230469 483.671875 C 253.828125 484.910156 253.429688 486.484375 252.144531 487.148438 C 250.863281 487.8125 249.355469 487.347656 248.671875 486.085938 C 245.902344 480.949219 243.3125 475.746094 240.921875 470.589844 Z M 224.851562 213.511719 C 224.851562 212.449219 225.449219 211.429688 226.558594 211.007812 C 227.839844 210.523438 229.324219 211.1875 229.921875 212.515625 C 231.914062 217.78125 234.082031 223.09375 236.363281 228.253906 C 236.960938 229.558594 236.363281 231.085938 235.078125 231.660156 C 233.796875 232.238281 232.289062 231.660156 231.714844 230.355469 C 229.324219 225.085938 227.132812 219.707031 225.050781 214.351562 Z M 217.214844 19.761719 L 217.414062 18.898438 C 219.097656 13.40625 221.089844 7.917969 223.171875 2.5625 C 223.679688 1.234375 225.164062 0.570312 226.558594 1.101562 C 227.839844 1.609375 228.527344 3.113281 227.929688 4.441406 C 225.960938 9.6875 223.96875 15.089844 222.285156 20.46875 C 221.886719 21.820312 220.402344 22.570312 219.007812 22.152344 C 218.011719 21.796875 217.328125 20.824219 217.214844 19.761719 Z M 223.480469 319.339844 L 223.570312 318.542969 C 225.164062 312.988281 227.042969 307.453125 229.125 302.050781 C 229.722656 300.722656 231.207031 300.082031 232.488281 300.589844 C 233.796875 301.121094 234.480469 302.605469 233.996094 303.933594 C 231.914062 309.179688 230.011719 314.582031 228.527344 319.960938 C 228.128906 321.332031 226.644531 322.128906 225.363281 321.730469 C 224.167969 321.421875 223.480469 320.425781 223.480469 319.339844 Z M 225.449219 429.484375 C 225.449219 428.332031 226.246094 427.25 227.332031 426.917969 C 228.726562 426.519531 230.121094 427.316406 230.519531 428.664062 C 232.113281 434.023438 233.882812 439.46875 235.875 444.847656 C 236.273438 446.175781 235.566406 447.65625 234.28125 448.144531 C 232.886719 448.632812 231.515625 447.945312 231.007812 446.59375 C 229.035156 441.105469 227.132812 435.570312 225.5625 430.105469 Z M 212.367188 172.472656 C 212.257812 171.277344 213.144531 170.171875 214.339844 169.882812 C 215.734375 169.550781 217.128906 170.414062 217.414062 171.808594 C 218.699219 177.296875 220.203125 182.855469 221.777344 188.277344 C 222.175781 189.648438 221.378906 191.085938 220.003906 191.484375 C 218.609375 191.882812 217.214844 191.085938 216.816406 189.738281 C 215.136719 184.203125 213.742188 178.558594 212.367188 172.980469 Z M 207.5 61.574219 L 207.5 61.085938 C 208.382812 55.398438 209.492188 49.644531 210.664062 44.042969 C 210.972656 42.648438 212.367188 41.761719 213.742188 42.074219 C 215.136719 42.359375 216.019531 43.734375 215.734375 45.128906 C 214.539062 50.640625 213.453125 56.261719 212.65625 61.863281 C 212.457031 63.277344 211.0625 64.253906 209.691406 64.03125 C 208.496094 63.832031 207.585938 62.792969 207.5 61.574219 Z M 216.730469 361.640625 L 216.730469 361.464844 C 216.929688 355.640625 217.414062 349.796875 218.210938 344.109375 C 218.410156 342.691406 219.695312 341.71875 221.089844 341.894531 C 222.484375 342.09375 223.480469 343.402344 223.28125 344.796875 C 222.574219 350.328125 222.085938 356.019531 221.777344 361.664062 C 221.777344 363.101562 220.601562 364.207031 219.097656 364.140625 C 217.8125 364.097656 216.730469 362.992188 216.730469 361.640625 Z M 217.414062 387.382812 C 217.328125 386.035156 218.300781 384.859375 219.695312 384.726562 C 221.089844 384.59375 222.375 385.636719 222.484375 387.050781 C 223.082031 392.585938 223.769531 398.253906 224.765625 403.875 C 224.964844 405.269531 224.054688 406.597656 222.683594 406.863281 C 221.289062 407.105469 219.894531 406.15625 219.695312 404.761719 C 218.699219 399.003906 217.925781 393.207031 217.414062 387.539062 Z M 205.507812 130.105469 C 205.507812 128.734375 206.503906 127.582031 207.898438 127.449219 C 209.292969 127.316406 210.574219 128.378906 210.664062 129.796875 C 211.171875 135.394531 211.859375 141.085938 212.65625 146.707031 C 212.855469 148.101562 211.859375 149.429688 210.464844 149.628906 C 209.09375 149.828125 207.785156 148.855469 207.585938 147.460938 C 206.703125 141.75 206.015625 135.949219 205.507812 130.238281 Z M 204.3125 104.363281 L 204.3125 104.273438 C 204.3125 98.519531 204.511719 92.675781 204.820312 86.964844 C 204.910156 85.546875 206.105469 84.460938 207.585938 84.527344 C 208.980469 84.617188 210.066406 85.835938 209.976562 87.25 C 209.691406 92.875 209.492188 98.605469 209.492188 104.273438 C 209.492188 105.691406 208.382812 106.863281 206.902344 106.863281 C 205.507812 106.863281 204.421875 105.757812 204.3125 104.363281 " fill-opacity="1" fill-rule="nonzero"/></g><path fill="#31086a" d="M 399.742188 791.730469 L 410.015625 799.320312 C 415.0625 803.085938 422.410156 802.820312 428.652344 798.679688 L 511.015625 752.039062 C 575.164062 799.011719 604.273438 809.148438 610.914062 800.097656 C 617.664062 791.066406 599.535156 766.140625 536.007812 718.371094 L 556.949219 625.558594 C 558.960938 618.652344 557.148438 611.878906 552.320312 608.292969 L 541.742188 600.4375 L 497.625 690.835938 C 474.164062 674.675781 452.625 661.375 435.292969 652.1875 L 440.230469 597.335938 L 429.558594 589.414062 L 406.496094 639.394531 C 400.253906 637.601562 396.222656 637.578125 394.71875 639.617188 C 393.101562 641.671875 394.410156 645.65625 397.929688 651.148438 L 356.757812 687.539062 L 367.425781 695.460938 L 418.492188 674.898438 C 432.371094 688.820312 451.40625 705.621094 473.765625 723.53125 L 399.742188 791.730469 " fill-opacity="1" fill-rule="nonzero"/></svg>