<svg xmlns="http://www.w3.org/2000/svg" xmlns:xlink="http://www.w3.org/1999/xlink" width="632" zoomAndPan="magnify" viewBox="0 0 474 30.750001" height="41" preserveAspectRatio="xMidYMid meet" version="1.0"><defs><clipPath id="1e2c31d37a"><path d="M 1.910156 0.328125 L 471.34375 0.328125 L 471.34375 30.085938 L 1.910156 30.085938 Z M 1.910156 0.328125 " clip-rule="nonzero"/></clipPath><clipPath id="21b8771462"><path d="M 35.351562 10.839844 L 44.277344 10.839844 L 44.277344 19.769531 L 35.351562 19.769531 Z M 35.351562 10.839844 " clip-rule="nonzero"/></clipPath><clipPath id="896bd96293"><path d="M 36.839844 10.839844 L 42.789062 10.839844 C 43.613281 10.839844 44.277344 11.507812 44.277344 12.328125 L 44.277344 18.28125 C 44.277344 19.101562 43.613281 19.769531 42.789062 19.769531 L 36.839844 19.769531 C 36.015625 19.769531 35.351562 19.101562 35.351562 18.28125 L 35.351562 12.328125 C 35.351562 11.507812 36.015625 10.839844 36.839844 10.839844 Z M 36.839844 10.839844 " clip-rule="nonzero"/></clipPath></defs><g clip-path="url(#1e2c31d37a)"><path fill="#1c2b4a" d="M -70.136719 815.203125 L -102.355469 782.984375 L -102.355469 744.726562 L -70.136719 776.945312 Z M -102.355469 944.070312 L -81.210938 965.210938 L -42.953125 965.210938 L -102.355469 905.8125 Z M 47.65625 932.992188 L 79.871094 965.210938 L 118.128906 965.210938 L 85.910156 932.992188 Z M 208.738281 932.992188 L 240.953125 965.210938 L 279.210938 965.210938 L 246.996094 932.992188 Z M 369.820312 932.992188 L 402.035156 965.210938 L 440.292969 965.210938 L 408.078125 932.992188 Z M -70.136719 132.613281 L -102.355469 100.398438 L -102.355469 138.652344 L -70.136719 170.871094 Z M -70.136719 293.695312 L -102.355469 261.480469 L -102.355469 299.738281 L -70.136719 331.953125 Z M -70.136719 454.777344 L -102.355469 422.5625 L -102.355469 460.820312 L -70.136719 493.035156 Z M -70.136719 615.863281 L -102.355469 583.644531 L -102.355469 621.902344 L -70.136719 654.121094 Z M 509.761719 911.851562 L 541.976562 944.070312 L 541.976562 905.8125 L 509.761719 873.59375 Z M 509.761719 106.4375 L 541.976562 138.652344 L 541.976562 100.398438 L 509.761719 68.179688 Z M 472.511719 30.929688 L 440.292969 -1.285156 L 402.035156 -1.285156 L 434.253906 30.929688 Z M 311.429688 30.929688 L 279.210938 -1.285156 L 240.953125 -1.285156 L 273.171875 30.929688 Z M 150.34375 30.929688 L 118.128906 -1.285156 L 79.871094 -1.285156 L 112.085938 30.929688 Z M 509.761719 589.6875 L 541.976562 621.902344 L 541.976562 583.644531 L 509.761719 551.429688 Z M 509.761719 750.769531 L 541.976562 782.984375 L 541.976562 744.726562 L 509.761719 712.511719 Z M -48.996094 30.929688 L -10.738281 30.929688 L -42.953125 -1.285156 L -81.210938 -1.285156 Z M 509.761719 267.519531 L 541.976562 299.738281 L 541.976562 261.480469 L 509.761719 229.261719 Z M 509.761719 428.601562 L 541.976562 460.820312 L 541.976562 422.5625 L 509.761719 390.347656 Z M 509.761719 428.601562 " fill-opacity="1" fill-rule="nonzero"/><path fill="#31086a" d="M -70.136719 895.742188 L -102.355469 863.527344 L -102.355469 825.269531 L -70.136719 857.488281 Z M -70.136719 696.402344 L -102.355469 664.1875 L -102.355469 702.445312 L -70.136719 734.660156 Z M 128.195312 932.992188 L 160.414062 965.210938 L 198.667969 965.210938 L 166.453125 932.992188 Z M -32.886719 932.992188 L -0.671875 965.210938 L 37.585938 965.210938 L 5.371094 932.992188 Z M -70.136719 213.15625 L -102.355469 180.9375 L -102.355469 219.195312 L -70.136719 251.410156 Z M -70.136719 535.320312 L -102.355469 503.105469 L -102.355469 541.359375 L -70.136719 573.578125 Z M -70.136719 52.070312 L -102.355469 19.855469 L -102.355469 58.113281 L -70.136719 90.328125 Z M 289.277344 932.992188 L 321.496094 965.210938 L 359.753906 965.210938 L 327.535156 932.992188 Z M -70.136719 374.238281 L -102.355469 342.019531 L -102.355469 380.277344 L -70.136719 412.496094 Z M 541.976562 19.855469 L 520.835938 -1.285156 L 482.578125 -1.285156 L 541.976562 58.113281 Z M 230.886719 30.929688 L 198.667969 -1.285156 L 160.414062 -1.285156 L 192.628906 30.929688 Z M 450.363281 932.992188 L 482.578125 965.210938 L 520.835938 965.210938 L 488.617188 932.992188 Z M 31.546875 30.929688 L 69.804688 30.929688 L 37.585938 -1.285156 L -0.671875 -1.285156 Z M 509.761719 186.980469 L 541.976562 219.195312 L 541.976562 180.9375 L 509.761719 148.722656 Z M 391.96875 30.929688 L 359.753906 -1.285156 L 321.496094 -1.285156 L 353.710938 30.929688 Z M 509.761719 670.226562 L 541.976562 702.445312 L 541.976562 664.1875 L 509.761719 631.96875 Z M 509.761719 831.308594 L 541.976562 863.527344 L 541.976562 825.269531 L 509.761719 793.054688 Z M 509.761719 348.0625 L 541.976562 380.277344 L 541.976562 342.019531 L 509.761719 309.804688 Z M 509.761719 509.144531 L 541.976562 541.359375 L 541.976562 503.105469 L 509.761719 470.886719 Z M 509.761719 509.144531 " fill-opacity="1" fill-rule="nonzero"/></g><g clip-path="url(#21b8771462)"><g clip-path="url(#896bd96293)"><path fill="#31086a" d="M 35.351562 10.839844 L 44.277344 10.839844 L 44.277344 19.769531 L 35.351562 19.769531 Z M 35.351562 10.839844 " fill-opacity="1" fill-rule="nonzero"/></g></g></svg>