<svg xmlns="http://www.w3.org/2000/svg" xmlns:xlink="http://www.w3.org/1999/xlink" width="1080" zoomAndPan="magnify" viewBox="0 0 810 809.999993" height="1080" preserveAspectRatio="xMidYMid meet" version="1.0"><defs><filter x="0%" y="0%" width="100%" height="100%" id="d6ddfa3c45"><feColorMatrix values="0 0 0 0 1 0 0 0 0 1 0 0 0 0 1 0 0 0 1 0" color-interpolation-filters="sRGB"/></filter><mask id="0f36f8e957"><g filter="url(#d6ddfa3c45)"><rect x="-81" width="972" fill="#000000" y="-80.999999" height="971.999992" fill-opacity="0.01"/></g></mask><clipPath id="38c0965d50"><path d="M 0 0 L 810 0 L 810 810 L 0 810 Z M 0 0 " clip-rule="nonzero"/></clipPath><clipPath id="2a6535ba52"><rect x="0" width="810" y="0" height="810"/></clipPath></defs><path fill="#faeaff" d="M 85.9375 668.761719 C 74.144531 668.761719 62.890625 665.367188 53.246094 659.074219 L 284.15625 422.480469 L 358.570312 498.171875 C 370.820312 510.632812 387.183594 517.492188 404.652344 517.503906 C 404.660156 517.503906 404.660156 517.503906 404.671875 517.503906 C 422.125 517.503906 438.484375 510.648438 450.726562 498.203125 L 525.335938 422.460938 L 756.71875 659.097656 C 747.089844 665.375 735.847656 668.761719 724.0625 668.761719 Z M 35.023438 640.527344 C 29.128906 631.105469 25.945312 620.191406 25.945312 608.785156 L 25.945312 200.996094 C 25.945312 189.523438 29.144531 178.550781 35.109375 169.109375 L 265.941406 403.933594 Z M 85.9375 141.019531 L 724.0625 141.019531 C 735.796875 141.019531 746.996094 144.363281 756.589844 150.589844 L 516.113281 394.789062 L 432.207031 479.964844 C 424.890625 487.410156 415.101562 491.511719 404.671875 491.511719 C 404.660156 491.511719 404.660156 491.511719 404.660156 491.511719 C 394.214844 491.511719 384.425781 487.402344 377.105469 479.957031 L 293.394531 394.796875 L 53.375 150.613281 C 62.984375 144.371094 74.195312 141.019531 85.9375 141.019531 Z M 543.574219 403.933594 L 774.867188 169.066406 C 780.847656 178.53125 784.054688 189.515625 784.054688 200.996094 L 784.054688 608.785156 C 784.054688 620.199219 780.871094 631.121094 774.941406 640.5625 Z M 785.050781 140.4375 C 785.050781 140.4375 785.050781 140.429688 785.050781 140.429688 C 785.042969 140.429688 785.042969 140.421875 785.035156 140.421875 C 785.035156 140.414062 785.035156 140.414062 785.027344 140.402344 C 785.027344 140.402344 785.015625 140.394531 785.007812 140.386719 C 768.773438 124.042969 747.132812 115.03125 724.0625 115.03125 L 85.9375 115.03125 C 62.851562 115.03125 41.183594 124.058594 24.933594 140.445312 C 24.921875 140.453125 24.914062 140.464844 24.90625 140.472656 C 8.824219 156.628906 -0.0429688 178.128906 -0.0429688 200.996094 L -0.0429688 608.785156 C -0.0429688 631.613281 8.796875 653.082031 24.839844 669.257812 C 24.882812 669.300781 24.921875 669.34375 24.964844 669.386719 C 24.972656 669.394531 24.984375 669.402344 24.992188 669.417969 C 25 669.429688 25.015625 669.4375 25.023438 669.445312 C 41.285156 685.757812 62.902344 694.75 85.9375 694.75 L 724.0625 694.75 C 747.117188 694.75 768.742188 685.757812 784.976562 669.445312 C 784.976562 669.4375 784.984375 669.4375 784.992188 669.429688 C 785 669.429688 785 669.417969 785.007812 669.410156 C 785.050781 669.367188 785.09375 669.335938 785.136719 669.292969 C 801.203125 653.101562 810.042969 631.613281 810.042969 608.785156 L 810.042969 200.996094 C 810.042969 178.117188 801.167969 156.613281 785.050781 140.4375 " fill-opacity="1" fill-rule="nonzero"/><g mask="url(#0f36f8e957)"><g transform="matrix(1, 0, 0, 1, 0, 0.000000000000039746)"><g clip-path="url(#2a6535ba52)"><g clip-path="url(#38c0965d50)"><rect x="-178.2" width="1166.4" fill="#faeaff" height="1166.39999" y="-178.199998" fill-opacity="1"/></g></g></g></g></svg>