<svg xmlns="http://www.w3.org/2000/svg" xmlns:xlink="http://www.w3.org/1999/xlink" width="1080" zoomAndPan="magnify" viewBox="0 0 810 809.999993" height="1080" preserveAspectRatio="xMidYMid meet" version="1.0"><defs><clipPath id="43acad7684"><path d="M 718 728 L 778 728 L 778 753.949219 L 718 753.949219 Z M 718 728 " clip-rule="nonzero"/></clipPath></defs><path fill="#000000" d="M 42.851562 563.453125 C 43.199219 563.351562 43.550781 563.265625 43.902344 563.164062 C 44.320312 562.121094 44.746094 561.082031 45.183594 560.046875 C 44.816406 559.277344 44.445312 558.507812 44.074219 557.734375 C 43.210938 557.980469 42.347656 558.226562 41.484375 558.496094 C 40.492188 558.835938 39.507812 559.191406 38.523438 559.5625 C 39.347656 561.042969 40.171875 562.523438 41 564.003906 C 41.601562 563.824219 42.214844 563.640625 42.851562 563.453125 Z M 42.851562 563.453125 " fill-opacity="1" fill-rule="nonzero"/><path fill="#000000" d="M 36.011719 560.542969 C 23.46875 565.664062 11.726562 573.558594 3.863281 584.640625 C 8.21875 579.617188 13.851562 575.921875 19.621094 572.710938 C 26.652344 569.027344 31.324219 567.042969 38.394531 564.808594 C 37.597656 563.386719 36.804688 561.964844 36.011719 560.542969 Z M 36.011719 560.542969 " fill-opacity="1" fill-rule="nonzero"/><path fill="#000000" d="M 54.734375 555.292969 C 52.796875 555.640625 50.863281 556.058594 48.933594 556.507812 C 48.488281 557.453125 48.058594 558.40625 47.636719 559.359375 C 47.710938 559.515625 47.785156 559.671875 47.863281 559.828125 C 48.195312 560.519531 48.527344 561.210938 48.863281 561.898438 C 51.613281 561.269531 54.367188 560.738281 57.128906 560.308594 C 56.332031 558.636719 55.53125 556.964844 54.734375 555.292969 Z M 54.734375 555.292969 " fill-opacity="1" fill-rule="nonzero"/><path fill="#000000" d="M 83.34375 553.429688 C 82.148438 553.390625 80.953125 553.40625 79.761719 553.390625 C 79.164062 554.734375 78.542969 556.070312 77.933594 557.410156 C 78.132812 557.847656 78.332031 558.289062 78.53125 558.730469 C 81.011719 558.738281 83.496094 558.824219 85.984375 558.941406 C 85.101562 557.105469 84.222656 555.265625 83.34375 553.429688 Z M 83.34375 553.429688 " fill-opacity="1" fill-rule="nonzero"/><path fill="#000000" d="M 266.980469 549.46875 C 266.652344 548.886719 266.335938 548.300781 266.011719 547.714844 C 265.964844 547.710938 265.921875 547.707031 265.875 547.703125 C 264.382812 549.246094 262.894531 550.789062 261.394531 552.328125 C 261.480469 552.488281 261.5625 552.648438 261.648438 552.804688 C 264.015625 552.945312 266.386719 553.121094 268.753906 553.394531 C 268.84375 553.300781 268.933594 553.210938 269.023438 553.121094 C 268.347656 551.902344 267.667969 550.683594 266.980469 549.46875 Z M 266.980469 549.46875 " fill-opacity="1" fill-rule="nonzero"/><path fill="#000000" d="M 250.050781 550.949219 C 251.25 549.703125 252.453125 548.457031 253.644531 547.199219 C 251.539062 547.195312 249.433594 547.265625 247.328125 547.351562 C 248.246094 548.542969 249.148438 549.746094 250.050781 550.949219 Z M 250.050781 550.949219 " fill-opacity="1" fill-rule="nonzero"/><path fill="#000000" d="M 195.257812 558.027344 C 193.488281 558.5625 191.714844 559.09375 189.933594 559.585938 C 174.785156 564.058594 158.726562 565.566406 144.980469 562.828125 C 125.871094 558.691406 106.039062 554.496094 86.277344 553.546875 C 86.339844 553.675781 86.402344 553.804688 86.464844 553.933594 C 87.296875 555.667969 88.140625 557.398438 88.976562 559.128906 C 107.484375 560.320312 126.144531 564.226562 144.828125 568.242188 C 160.394531 571.144531 176.234375 569.078125 191.34375 564.804688 C 192.644531 562.542969 193.945312 560.28125 195.257812 558.027344 Z M 195.257812 558.027344 " fill-opacity="1" fill-rule="nonzero"/><path fill="#000000" d="M 197.601562 557.328125 C 196.265625 559.589844 194.945312 561.863281 193.636719 564.140625 C 195.632812 563.5625 197.621094 562.96875 199.605469 562.355469 C 200.9375 560.050781 202.28125 557.753906 203.632812 555.460938 C 201.621094 556.085938 199.613281 556.710938 197.601562 557.328125 Z M 197.601562 557.328125 " fill-opacity="1" fill-rule="nonzero"/><path fill="#000000" d="M 205.988281 554.738281 C 204.636719 557.03125 203.289062 559.324219 201.957031 561.628906 C 202.933594 561.324219 203.914062 561.019531 204.890625 560.71875 C 206.285156 558.410156 207.6875 556.109375 209.078125 553.796875 C 208.046875 554.105469 207.015625 554.421875 205.988281 554.738281 Z M 205.988281 554.738281 " fill-opacity="1" fill-rule="nonzero"/><path fill="#000000" d="M 247.988281 551.640625 C 246.933594 550.242188 245.871094 548.851562 244.808594 547.457031 C 237.191406 547.882812 229.601562 548.867188 222.117188 550.429688 C 218.558594 551.164062 215.046875 552.082031 211.558594 553.078125 C 210.191406 555.371094 208.808594 557.65625 207.417969 559.941406 C 213.222656 558.160156 219.054688 556.488281 225.023438 555.339844 C 232.648438 553.824219 240.496094 552.921875 248.417969 552.652344 C 248.476562 552.59375 248.53125 552.535156 248.589844 552.472656 C 248.386719 552.199219 248.195312 551.914062 247.988281 551.640625 Z M 247.988281 551.640625 " fill-opacity="1" fill-rule="nonzero"/><path fill="#000000" d="M 259.011719 551.269531 C 258.34375 550.011719 257.691406 548.746094 257.035156 547.484375 C 255.519531 549.183594 253.992188 550.871094 252.457031 552.554688 C 254.503906 552.542969 256.554688 552.558594 258.609375 552.636719 C 258.855469 552.390625 259.09375 552.140625 259.335938 551.890625 C 259.230469 551.683594 259.121094 551.476562 259.011719 551.269531 Z M 259.011719 551.269531 " fill-opacity="1" fill-rule="nonzero"/><path fill="#000000" d="M 277.382812 549.191406 C 276.714844 549.078125 276.050781 548.957031 275.382812 548.851562 C 274.027344 550.246094 272.6875 551.660156 271.320312 553.046875 C 271.214844 553.152344 271.109375 553.257812 271.003906 553.363281 C 271.0625 553.464844 271.117188 553.566406 271.175781 553.671875 C 273.28125 553.953125 275.386719 554.273438 277.480469 554.664062 C 278.050781 554.097656 278.617188 553.535156 279.183594 552.972656 C 278.582031 551.714844 277.980469 550.453125 277.382812 549.191406 Z M 277.382812 549.191406 " fill-opacity="1" fill-rule="nonzero"/><path fill="#000000" d="M 392.824219 559.378906 C 390.621094 559.933594 388.410156 560.460938 386.195312 560.96875 C 381.421875 562.054688 374.621094 563.21875 371.152344 563.65625 C 361.804688 564.878906 352.34375 564.9375 342.972656 563.933594 C 325.972656 562.921875 306.523438 556.367188 288.113281 551.519531 C 286.792969 551.167969 285.472656 550.839844 284.144531 550.53125 C 283.15625 551.519531 282.160156 552.5 281.167969 553.484375 C 281.511719 554.199219 281.855469 554.917969 282.195312 555.632812 C 283.746094 555.984375 285.296875 556.355469 286.835938 556.769531 C 305.292969 561.53125 323.476562 568.105469 342.664062 569.230469 C 359.648438 570.703125 376.613281 566.617188 392.113281 559.835938 C 392.527344 559.535156 394.519531 558.949219 392.824219 559.378906 Z M 392.824219 559.378906 " fill-opacity="1" fill-rule="nonzero"/><path fill="#000000" d="M 101.703125 488.523438 C 81.480469 486.015625 61.121094 486.003906 41.484375 492.167969 C 26.941406 497.125 12.863281 505.632812 3.863281 518.3125 C 8.21875 513.289062 13.851562 509.59375 19.621094 506.382812 C 28.027344 501.980469 33.050781 500.003906 42.851562 497.125 C 61.023438 491.78125 79.460938 491.507812 98.03125 493.539062 C 99.25 491.863281 100.476562 490.191406 101.703125 488.523438 Z M 101.703125 488.523438 " fill-opacity="1" fill-rule="nonzero"/><path fill="#000000" d="M 118.195312 491.132812 C 115.984375 490.742188 113.773438 490.355469 111.554688 490 C 110.351562 491.59375 109.148438 493.183594 107.960938 494.785156 C 107.941406 494.8125 107.925781 494.839844 107.90625 494.867188 C 110.085938 495.191406 112.269531 495.5625 114.453125 495.929688 C 115.699219 494.332031 116.949219 492.734375 118.195312 491.132812 Z M 118.195312 491.132812 " fill-opacity="1" fill-rule="nonzero"/><path fill="#000000" d="M 120.804688 496.402344 C 121.960938 495.007812 123.160156 493.65625 124.339844 492.28125 C 122.957031 492.019531 121.585938 491.730469 120.199219 491.480469 C 118.960938 493.074219 117.726562 494.667969 116.488281 496.261719 C 117.777344 496.484375 119.066406 496.730469 120.355469 496.964844 C 120.507812 496.78125 120.652344 496.585938 120.804688 496.402344 Z M 120.804688 496.402344 " fill-opacity="1" fill-rule="nonzero"/><path fill="#000000" d="M 140.539062 495.5625 C 138.9375 495.222656 137.347656 494.878906 135.742188 494.550781 C 134.863281 495.578125 133.988281 496.609375 133.113281 497.636719 C 132.675781 498.152344 132.257812 498.679688 131.828125 499.195312 C 133.402344 499.515625 134.976562 499.859375 136.554688 500.183594 C 137.875 498.636719 139.199219 497.09375 140.539062 495.5625 Z M 140.539062 495.5625 " fill-opacity="1" fill-rule="nonzero"/><path fill="#000000" d="M 265.894531 481.34375 C 251.292969 480.058594 236.503906 481.09375 222.117188 484.101562 C 211.171875 486.355469 200.683594 490.289062 189.933594 493.261719 C 174.785156 497.730469 158.726562 499.238281 144.980469 496.5 C 144.058594 496.296875 143.121094 496.109375 142.195312 495.910156 C 140.871094 497.449219 139.542969 498.988281 138.222656 500.53125 C 140.425781 500.992188 142.625 501.441406 144.828125 501.914062 C 160.777344 504.886719 177.011719 502.652344 192.457031 498.164062 C 203.304688 495.085938 213.925781 491.148438 225.023438 489.011719 C 237.632812 486.503906 250.839844 485.546875 264.003906 486.566406 C 264.992188 485.28125 265.96875 483.992188 266.949219 482.703125 C 266.597656 482.25 266.246094 481.796875 265.894531 481.34375 Z M 265.894531 481.34375 " fill-opacity="1" fill-rule="nonzero"/><path fill="#000000" d="M 271.035156 485.050781 C 271.757812 485.90625 272.480469 486.773438 273.203125 487.640625 C 273.277344 487.652344 273.351562 487.660156 273.421875 487.671875 C 274.804688 486.078125 276.179688 484.480469 277.554688 482.882812 C 274.9375 482.421875 272.308594 482.019531 269.671875 481.714844 C 269.460938 481.992188 269.25 482.265625 269.039062 482.542969 C 269.703125 483.378906 270.347656 484.234375 271.035156 485.050781 Z M 271.035156 485.050781 " fill-opacity="1" fill-rule="nonzero"/><path fill="#000000" d="M 280.253906 483.386719 C 279.972656 483.332031 279.695312 483.269531 279.414062 483.214844 C 278.066406 484.804688 276.703125 486.382812 275.347656 487.96875 C 277.648438 488.351562 279.933594 488.816406 282.214844 489.328125 C 282.652344 488.777344 283.089844 488.226562 283.527344 487.675781 C 282.433594 486.246094 281.339844 484.820312 280.253906 483.386719 Z M 280.253906 483.386719 " fill-opacity="1" fill-rule="nonzero"/><path fill="#000000" d="M 287.828125 490.703125 C 288.539062 490.890625 289.253906 491.074219 289.964844 491.265625 C 291.347656 489.78125 292.734375 488.296875 294.121094 486.820312 C 292.109375 486.261719 290.105469 485.71875 288.113281 485.191406 C 287.984375 485.160156 287.855469 485.128906 287.726562 485.097656 C 287.007812 485.960938 286.296875 486.835938 285.585938 487.707031 C 286.335938 488.703125 287.074219 489.710938 287.828125 490.703125 Z M 287.828125 490.703125 " fill-opacity="1" fill-rule="nonzero"/><path fill="#000000" d="M 301.316406 488.828125 C 299.554688 488.332031 297.796875 487.839844 296.039062 487.351562 C 294.671875 488.832031 293.320312 490.324219 291.957031 491.808594 C 293.773438 492.304688 295.589844 492.816406 297.40625 493.328125 C 298.710938 491.828125 300.011719 490.324219 301.316406 488.828125 Z M 301.316406 488.828125 " fill-opacity="1" fill-rule="nonzero"/><path fill="#000000" d="M 302.527344 490.613281 C 301.699219 491.566406 300.871094 492.511719 300.042969 493.464844 C 299.902344 493.628906 299.765625 493.789062 299.625 493.953125 C 301.695312 494.539062 303.765625 495.113281 305.835938 495.691406 C 304.730469 494 303.628906 492.308594 302.527344 490.613281 Z M 302.527344 490.613281 " fill-opacity="1" fill-rule="nonzero"/><path fill="#000000" d="M 307.949219 495.632812 C 308.09375 495.851562 308.230469 496.070312 308.371094 496.289062 C 309.625 494.789062 310.875 493.292969 312.132812 491.800781 C 309.414062 491.074219 306.691406 490.324219 303.964844 489.5625 C 305.292969 491.589844 306.617188 493.613281 307.949219 495.632812 Z M 307.949219 495.632812 " fill-opacity="1" fill-rule="nonzero"/><path fill="#000000" d="M 392.824219 493.054688 C 390.621094 493.605469 388.410156 494.132812 386.195312 494.640625 C 381.421875 495.726562 374.621094 496.890625 371.152344 497.328125 C 361.804688 498.550781 352.34375 498.609375 342.972656 497.605469 C 333.996094 497.070312 324.332031 494.984375 314.503906 492.425781 C 313.726562 493.335938 312.9375 494.238281 312.164062 495.152344 C 311.644531 495.769531 311.128906 496.394531 310.609375 497.015625 C 321.125 499.847656 331.730469 502.261719 342.664062 502.902344 C 359.648438 504.375 376.613281 500.289062 392.113281 493.507812 C 392.527344 493.207031 394.519531 492.621094 392.824219 493.054688 Z M 392.824219 493.054688 " fill-opacity="1" fill-rule="nonzero"/><path fill="#000000" d="M 133.316406 495.476562 L 134.359375 494.269531 C 131.535156 493.695312 128.703125 493.125 125.863281 492.578125 C 124.5625 494.132812 123.25 495.683594 121.980469 497.261719 C 124.769531 497.78125 127.5625 498.347656 130.355469 498.90625 C 131.34375 497.761719 132.332031 496.621094 133.316406 495.476562 Z M 133.316406 495.476562 " fill-opacity="1" fill-rule="nonzero"/><path fill="#000000" d="M 107.085938 432.648438 C 107.191406 432.664062 107.296875 432.683594 107.402344 432.699219 C 108.550781 431.066406 109.707031 429.4375 110.863281 427.808594 C 109.070312 427.527344 107.277344 427.25 105.484375 427 C 105.203125 427.371094 104.929688 427.746094 104.652344 428.121094 C 105.457031 429.582031 106.269531 431.042969 107.027344 432.53125 C 107.046875 432.570312 107.066406 432.609375 107.085938 432.648438 Z M 107.085938 432.648438 " fill-opacity="1" fill-rule="nonzero"/><path fill="#000000" d="M 116.277344 434.007812 C 115.148438 432.160156 114.003906 430.316406 112.851562 428.484375 C 111.765625 430 110.691406 431.527344 109.609375 433.050781 C 111.804688 433.390625 114.003906 433.730469 116.199219 434.109375 C 116.226562 434.074219 116.25 434.042969 116.277344 434.007812 Z M 116.277344 434.007812 " fill-opacity="1" fill-rule="nonzero"/><path fill="#000000" d="M 131.988281 431.679688 C 128.699219 431.007812 125.394531 430.359375 122.078125 429.738281 C 121.976562 429.878906 121.878906 430.023438 121.777344 430.167969 C 121.714844 430.25 121.652344 430.332031 121.59375 430.417969 C 122.699219 432.1875 123.777344 433.96875 124.851562 435.753906 C 128.441406 436.445312 132.035156 437.164062 135.628906 437.902344 C 134.394531 435.839844 133.179688 433.765625 131.988281 431.679688 Z M 131.988281 431.679688 " fill-opacity="1" fill-rule="nonzero"/><path fill="#000000" d="M 252.03125 424.089844 C 253.453125 422.304688 254.867188 420.519531 256.292969 418.738281 C 244.84375 418.519531 233.355469 419.671875 222.117188 422.023438 C 211.171875 424.273438 200.683594 428.207031 189.933594 431.179688 C 174.785156 435.652344 158.726562 437.15625 144.980469 434.417969 C 141.496094 433.664062 137.976562 432.917969 134.449219 432.183594 C 134.953125 433.054688 135.441406 433.9375 135.953125 434.804688 C 136.675781 436.027344 137.429688 437.230469 138.175781 438.4375 C 140.394531 438.898438 142.609375 439.355469 144.828125 439.835938 C 160.777344 442.808594 177.011719 440.570312 192.457031 436.085938 C 203.304688 433.003906 213.925781 429.070312 225.023438 426.933594 C 233.808594 425.183594 242.882812 424.191406 252.03125 424.089844 Z M 252.03125 424.089844 " fill-opacity="1" fill-rule="nonzero"/><path fill="#000000" d="M 270.144531 419.6875 C 266.304688 419.226562 262.449219 418.929688 258.585938 418.796875 C 257.175781 420.558594 255.777344 422.328125 254.367188 424.09375 C 258.230469 424.117188 262.105469 424.308594 265.96875 424.664062 C 267.351562 422.996094 268.75 421.34375 270.144531 419.6875 Z M 270.144531 419.6875 " fill-opacity="1" fill-rule="nonzero"/><path fill="#000000" d="M 276.152344 425.382812 C 277.382812 423.992188 278.617188 422.605469 279.847656 421.21875 C 277.53125 420.765625 275.207031 420.371094 272.875 420.042969 C 271.5 421.671875 270.15625 423.328125 268.789062 424.960938 C 271.082031 425.222656 273.367188 425.566406 275.648438 425.949219 C 275.816406 425.761719 275.984375 425.570312 276.152344 425.382812 Z M 276.152344 425.382812 " fill-opacity="1" fill-rule="nonzero"/><path fill="#000000" d="M 303.609375 427.382812 C 302.6875 427.125 301.761719 426.875 300.84375 426.617188 C 299.542969 428.117188 298.242188 429.613281 296.949219 431.113281 C 299.636719 431.871094 302.324219 432.632812 305.011719 433.386719 C 304.550781 431.382812 304.082031 429.382812 303.609375 427.382812 Z M 303.609375 427.382812 " fill-opacity="1" fill-rule="nonzero"/><path fill="#000000" d="M 312.71875 429.878906 C 312.59375 429.84375 312.472656 429.816406 312.347656 429.78125 C 311.007812 431.292969 309.667969 432.800781 308.332031 434.316406 C 310.414062 434.886719 312.503906 435.433594 314.59375 435.96875 C 313.980469 433.9375 313.351562 431.90625 312.71875 429.878906 Z M 312.71875 429.878906 " fill-opacity="1" fill-rule="nonzero"/><path fill="#000000" d="M 334.289062 435.339844 C 334.234375 435.074219 334.160156 434.808594 334.105469 434.542969 C 330.734375 434.023438 327.300781 433.359375 323.824219 432.589844 C 324.355469 434.542969 324.886719 436.5 325.410156 438.460938 C 328.738281 439.132812 332.089844 439.691406 335.464844 440.125 C 335.050781 438.539062 334.621094 436.957031 334.289062 435.339844 Z M 334.289062 435.339844 " fill-opacity="1" fill-rule="nonzero"/><path fill="#000000" d="M 392.824219 430.972656 C 390.621094 431.527344 388.410156 432.054688 386.195312 432.5625 C 381.421875 433.648438 374.621094 434.8125 371.152344 435.25 C 361.804688 436.472656 352.34375 436.53125 342.972656 435.527344 C 340.726562 435.394531 338.421875 435.132812 336.097656 434.816406 C 336.226562 435.429688 336.371094 436.039062 336.503906 436.65625 C 336.765625 437.90625 337.121094 439.136719 337.464844 440.371094 C 339.191406 440.558594 340.921875 440.722656 342.664062 440.824219 C 359.648438 442.296875 376.613281 438.207031 392.113281 431.429688 C 392.527344 431.128906 394.519531 430.542969 392.824219 430.972656 Z M 392.824219 430.972656 " fill-opacity="1" fill-rule="nonzero"/><path fill="#000000" d="M 293.367188 426.140625 C 293.203125 425.558594 293.027344 424.984375 292.859375 424.40625 C 291.953125 424.15625 291.035156 423.894531 290.132812 423.652344 C 289.3125 424.574219 288.496094 425.496094 287.675781 426.417969 C 287.898438 427.203125 288.117188 427.984375 288.339844 428.769531 C 290.496094 429.335938 292.648438 429.917969 294.800781 430.515625 C 294.296875 429.066406 293.785156 427.617188 293.367188 426.140625 Z M 293.367188 426.140625 " fill-opacity="1" fill-rule="nonzero"/><path fill="#000000" d="M 284.65625 422.296875 C 283.703125 422.074219 282.753906 421.820312 281.796875 421.621094 C 280.425781 423.175781 279.050781 424.734375 277.675781 426.289062 C 279.875 426.699219 282.058594 427.1875 284.238281 427.71875 C 284.734375 427.167969 285.230469 426.617188 285.722656 426.0625 C 285.367188 424.808594 285.015625 423.550781 284.65625 422.296875 Z M 284.65625 422.296875 " fill-opacity="1" fill-rule="nonzero"/><path fill="#000000" d="M 88.210938 430.617188 C 88.632812 429.921875 89.042969 429.222656 89.46875 428.53125 C 90.042969 427.609375 90.636719 426.695312 91.210938 425.777344 C 91.117188 425.648438 91.015625 425.523438 90.921875 425.394531 C 88.757812 425.234375 86.597656 425.089844 84.433594 425.007812 C 85.449219 426.855469 86.457031 428.710938 87.472656 430.558594 C 87.71875 430.574219 87.964844 430.601562 88.210938 430.617188 Z M 88.210938 430.617188 " fill-opacity="1" fill-rule="nonzero"/><path fill="#000000" d="M 82.546875 424.945312 C 68.707031 424.5625 54.925781 425.871094 41.484375 430.089844 C 26.941406 435.042969 12.863281 443.554688 3.863281 456.234375 C 8.21875 451.210938 13.851562 447.515625 19.621094 444.304688 C 28.027344 439.898438 33.050781 437.925781 42.851562 435.046875 C 56.949219 430.898438 71.203125 429.816406 85.554688 430.476562 C 84.550781 428.632812 83.550781 426.789062 82.546875 424.945312 Z M 82.546875 424.945312 " fill-opacity="1" fill-rule="nonzero"/><path fill="#000000" d="M 264.503906 615.574219 C 264.296875 615.113281 264.089844 614.652344 263.882812 614.1875 C 262.136719 614.011719 260.386719 613.847656 258.632812 613.734375 C 259.320312 615.441406 260.003906 617.144531 260.6875 618.847656 C 261.960938 617.757812 263.234375 616.667969 264.503906 615.574219 Z M 264.503906 615.574219 " fill-opacity="1" fill-rule="nonzero"/><path fill="#000000" d="M 277.777344 621.851562 C 279.296875 620.355469 280.824219 618.871094 282.351562 617.382812 C 277.632812 616.210938 272.863281 615.328125 268.066406 614.695312 C 267.734375 614.984375 267.398438 615.265625 267.066406 615.554688 C 267.78125 617.132812 268.496094 618.707031 269.21875 620.28125 C 272.082031 620.707031 274.9375 621.230469 277.777344 621.851562 Z M 277.777344 621.851562 " fill-opacity="1" fill-rule="nonzero"/><path fill="#000000" d="M 284.234375 617.847656 C 284.179688 617.835938 284.125 617.820312 284.070312 617.808594 C 282.558594 619.28125 281.046875 620.757812 279.542969 622.238281 C 280.683594 622.503906 281.820312 622.789062 282.953125 623.097656 C 285.179688 623.671875 287.402344 624.273438 289.621094 624.886719 C 288.644531 622.75 287.648438 620.625 286.65625 618.496094 C 285.847656 618.277344 285.039062 618.058594 284.234375 617.847656 Z M 284.234375 617.847656 " fill-opacity="1" fill-rule="nonzero"/><path fill="#000000" d="M 388.945312 625.707031 C 386.742188 626.261719 384.53125 626.789062 382.316406 627.296875 C 377.542969 628.382812 370.742188 629.546875 367.269531 629.984375 C 357.925781 631.207031 348.460938 631.265625 339.09375 630.261719 C 335.011719 630.019531 330.789062 629.449219 326.476562 628.664062 C 324.976562 630.207031 323.472656 631.75 321.957031 633.285156 C 327.5 634.390625 333.09375 635.226562 338.785156 635.558594 C 355.765625 637.03125 372.734375 632.941406 388.234375 626.164062 C 388.644531 625.863281 390.640625 625.277344 388.945312 625.707031 Z M 388.945312 625.707031 " fill-opacity="1" fill-rule="nonzero"/><path fill="#000000" d="M 314.976562 631.765625 C 316.660156 632.167969 318.355469 632.539062 320.050781 632.898438 C 321.578125 631.375 323.101562 629.839844 324.625 628.3125 C 320.621094 627.535156 316.550781 626.589844 312.441406 625.542969 C 312.621094 625.988281 312.8125 626.433594 312.992188 626.882812 C 313.65625 628.507812 314.316406 630.136719 314.976562 631.765625 Z M 314.976562 631.765625 " fill-opacity="1" fill-rule="nonzero"/><path fill="#000000" d="M 309.394531 624.757812 C 308.167969 624.433594 306.941406 624.109375 305.710938 623.773438 C 306.53125 625.867188 307.351562 627.957031 308.175781 630.050781 C 309.429688 630.382812 310.683594 630.707031 311.941406 631.023438 C 311.09375 628.933594 310.242188 626.847656 309.394531 624.757812 Z M 309.394531 624.757812 " fill-opacity="1" fill-rule="nonzero"/><path fill="#000000" d="M 256.140625 613.585938 C 254.789062 613.527344 253.4375 613.484375 252.085938 613.460938 C 252.820312 615.273438 253.554688 617.085938 254.273438 618.902344 C 255.625 618.949219 256.980469 619.019531 258.332031 619.105469 C 257.601562 617.265625 256.871094 615.425781 256.140625 613.585938 Z M 256.140625 613.585938 " fill-opacity="1" fill-rule="nonzero"/><path fill="#000000" d="M 87.28125 620.164062 C 84.503906 619.957031 81.726562 619.800781 78.953125 619.71875 C 78.023438 621.515625 77.101562 623.3125 76.191406 625.117188 C 78.894531 625.152344 81.601562 625.253906 84.3125 625.417969 C 85.292969 623.660156 86.28125 621.910156 87.28125 620.164062 Z M 87.28125 620.164062 " fill-opacity="1" fill-rule="nonzero"/><path fill="#000000" d="M 146.984375 635.421875 C 147.179688 635.117188 147.375 634.8125 147.570312 634.507812 C 146.875 632.957031 146.183594 631.402344 145.492188 629.847656 C 144.011719 629.652344 142.539062 629.441406 141.101562 629.152344 C 124.285156 625.515625 106.910156 621.855469 89.515625 620.367188 C 88.523438 622.105469 87.542969 623.851562 86.566406 625.597656 C 104.59375 626.882812 122.757812 630.660156 140.949219 634.570312 C 142.957031 634.941406 144.96875 635.210938 146.984375 635.421875 Z M 146.984375 635.421875 " fill-opacity="1" fill-rule="nonzero"/><path fill="#000000" d="M 57.871094 620.597656 C 51.054688 621.402344 44.285156 622.726562 37.601562 624.824219 C 23.058594 629.777344 8.980469 638.289062 -0.015625 650.96875 C 4.339844 645.945312 9.972656 642.25 15.738281 639.039062 C 24.148438 634.632812 29.167969 632.660156 38.96875 629.78125 C 44.386719 628.1875 49.828125 627.078125 55.285156 626.3125 C 56.148438 624.40625 57.011719 622.503906 57.871094 620.597656 Z M 57.871094 620.597656 " fill-opacity="1" fill-rule="nonzero"/><path fill="#000000" d="M 178.03125 633.457031 C 178.585938 633.339844 179.136719 633.195312 179.691406 633.074219 C 181.144531 630.875 182.582031 628.664062 184.027344 626.460938 C 181.210938 627.234375 178.375 627.929688 175.527344 628.480469 C 176.25 629.914062 176.96875 631.347656 177.691406 632.785156 C 177.804688 633.007812 177.917969 633.230469 178.03125 633.457031 Z M 178.03125 633.457031 " fill-opacity="1" fill-rule="nonzero"/><path fill="#000000" d="M 249.386719 613.449219 C 238.941406 613.472656 228.484375 614.613281 218.234375 616.757812 C 207.398438 618.988281 197.007812 622.863281 186.363281 625.828125 C 184.890625 628.070312 183.414062 630.316406 181.9375 632.558594 C 184.164062 632.027344 186.382812 631.457031 188.578125 630.820312 C 199.421875 627.738281 210.046875 623.804688 221.140625 621.667969 C 231.015625 619.703125 241.257812 618.691406 251.558594 618.832031 C 250.84375 617.035156 250.117188 615.242188 249.386719 613.449219 Z M 249.386719 613.449219 " fill-opacity="1" fill-rule="nonzero"/><path fill="#000000" d="M 172.742188 628.957031 C 170.210938 629.378906 167.679688 629.746094 165.167969 629.984375 C 165.941406 631.722656 166.75 633.445312 167.546875 635.171875 C 170.128906 634.867188 172.699219 634.445312 175.261719 633.972656 C 174.421875 632.300781 173.582031 630.625 172.742188 628.957031 Z M 172.742188 628.957031 " fill-opacity="1" fill-rule="nonzero"/><path fill="#000000" d="M 328.441406 738.746094 C 320.527344 723.710938 303.457031 729.121094 299.601562 743.949219 C 299.492188 744.3125 299.421875 744.6875 299.347656 745.058594 C 290.664062 745.257812 281.730469 746.234375 273.660156 749.554688 C 276.335938 748.8125 278.660156 748.621094 281.402344 748.433594 C 287.328125 748.023438 293.273438 747.90625 299.203125 748.335938 C 302.570312 748.9375 302.367188 746.671875 303.214844 744.25 C 307.433594 732.414062 319.894531 727.78125 327.902344 740.890625 C 329.578125 743.601562 330.691406 746.589844 331.691406 749.226562 C 331.035156 745.621094 330.152344 742.003906 328.441406 738.746094 Z M 328.441406 738.746094 " fill-opacity="1" fill-rule="nonzero"/><path fill="#000000" d="M 394.761719 732.664062 C 390.867188 728.554688 384.628906 727.460938 379.246094 728.625 C 372.464844 730.070312 366.859375 735.65625 365.550781 742.484375 C 365.308594 743.574219 365.1875 744.683594 365.085938 745.792969 C 354.167969 745.804688 343.347656 747.585938 332.59375 749.285156 C 341.019531 749.417969 349.449219 749.21875 357.878906 749.261719 C 360.59375 749.261719 363.308594 749.382812 366.019531 749.476562 C 366.53125 749.484375 367.09375 749.496094 367.542969 749.214844 C 369.15625 748.191406 368.632812 745.9375 369.007812 744.316406 C 368.816406 745.515625 369.21875 743.179688 369.355469 742.738281 C 369.371094 742.417969 369.871094 741.085938 369.996094 740.734375 C 372.699219 734.535156 378.261719 731.632812 384.59375 731.582031 C 388.644531 731.714844 392.105469 732.667969 394.664062 736.335938 C 397.152344 740.21875 398.429688 745.070312 398.792969 750.046875 C 398.824219 751.058594 398.898438 749.636719 398.941406 749.257812 C 399.230469 743.578125 398.53125 737.167969 394.761719 732.664062 Z M 394.761719 732.664062 " fill-opacity="1" fill-rule="nonzero"/><path fill="#000000" d="M 438.441406 727.933594 C 432.179688 728.921875 426.25 733.554688 424.878906 739.90625 C 424.535156 741.804688 424.546875 743.734375 424.816406 745.636719 C 416.316406 746.671875 407.804688 747.730469 399.460938 749.683594 C 408.183594 749.210938 416.921875 749.292969 425.648438 748.847656 C 426.558594 748.832031 427.703125 748.792969 428.164062 747.859375 C 428.675781 746.945312 428.21875 745.875 428.234375 744.894531 C 428.167969 742.386719 428.214844 741.796875 428.671875 740.074219 C 430.242188 735.042969 435.699219 731.386719 441.410156 730.953125 C 450.222656 729.960938 458.050781 736.800781 461.410156 744.597656 C 458.984375 734.195312 449.425781 725.996094 438.441406 727.933594 Z M 438.441406 727.933594 " fill-opacity="1" fill-rule="nonzero"/><path fill="#000000" d="M 518.816406 731.054688 C 513.792969 726.898438 506.203125 726.769531 500.742188 730.164062 C 498.144531 731.742188 496.296875 734.304688 495.175781 737.09375 C 494.21875 739.027344 493.398438 743.277344 493.03125 744.328125 C 484.792969 744.628906 472.164062 745.148438 462.503906 746.558594 C 472.722656 746.972656 482.953125 747.554688 493.179688 747.855469 C 495.832031 748.222656 496.742188 745.296875 497.515625 741.808594 C 499.199219 735.734375 501.625 732.621094 507.546875 731.25 C 517.855469 729.21875 522.90625 737.515625 526.714844 746.347656 C 525.382812 740.792969 523.445312 734.730469 518.816406 731.054688 Z M 518.816406 731.054688 " fill-opacity="1" fill-rule="nonzero"/><path fill="#000000" d="M 576.675781 725.890625 C 565.257812 724.324219 556.957031 736.210938 555.3125 744.628906 C 545.984375 745.160156 536.710938 746.214844 527.4375 747.371094 C 534.425781 747.769531 541.429688 747.757812 548.425781 747.929688 C 551 747.96875 553.574219 748.027344 556.148438 748 C 556.816406 747.988281 557.550781 747.8125 557.996094 747.28125 C 558.613281 746.574219 558.773438 745.601562 559.054688 744.730469 C 560.167969 741.203125 560.003906 741.542969 561.234375 739.132812 C 565.246094 732.574219 570.367188 728.183594 578.621094 729.414062 C 587.757812 730.421875 593.15625 736.390625 595.191406 746.625 C 594.75 735.078125 588.53125 726.988281 576.675781 725.890625 Z M 576.675781 725.890625 " fill-opacity="1" fill-rule="nonzero"/><path fill="#000000" d="M 657.515625 745.460938 C 656.570312 737.449219 651.679688 728.574219 643.078125 727.191406 C 634.390625 725.71875 626.613281 732.273438 625.875 740.910156 C 625.511719 743.007812 625.769531 745.746094 625.988281 747.378906 C 616.089844 747.207031 606.109375 747.382812 596.269531 748.472656 C 606.527344 749.117188 616.769531 750.277344 627.035156 750.949219 C 629.964844 751.375 629.910156 748.609375 629.542969 747.53125 C 629.238281 745.566406 629.214844 745.949219 629.167969 743.945312 C 629.195312 738.046875 631.171875 733.988281 636.421875 731.226562 C 641.179688 729.191406 647.378906 729.964844 652.011719 735.546875 C 654.625 738.417969 656.46875 742.605469 657.585938 746.847656 C 657.84375 748.082031 657.5625 745.859375 657.515625 745.460938 Z M 657.515625 745.460938 " fill-opacity="1" fill-rule="nonzero"/><path fill="#000000" d="M 717.78125 749.707031 C 717.464844 744.523438 717.019531 739.007812 714.246094 734.484375 C 709.503906 726.554688 699.953125 724.921875 692.382812 729.894531 C 686.050781 733.660156 684.953125 742.101562 685.070312 747.398438 C 675.941406 747.238281 666.8125 747.261719 657.691406 747.828125 C 665.082031 748.800781 672.515625 749.355469 679.941406 749.941406 C 682.160156 750.253906 682.953125 750.335938 685.542969 750.554688 C 687.378906 750.917969 688.460938 749.574219 688.414062 747.835938 C 688.40625 739.347656 690.40625 733.578125 697.195312 731.15625 C 703.898438 728.667969 710.449219 731.042969 714.238281 738.632812 C 715.832031 741.929688 717.015625 746.6875 717.804688 750.898438 C 717.800781 750.5 717.796875 750.101562 717.78125 749.707031 Z M 717.78125 749.707031 " fill-opacity="1" fill-rule="nonzero"/><g clip-path="url(#43acad7684)"><path fill="#000000" d="M 769.398438 729.703125 C 764.9375 727.585938 759.507812 728.640625 755.707031 731.640625 C 752.304688 734.148438 750.175781 738.027344 748.988281 742.015625 C 748.199219 744.691406 747.984375 748.332031 747.667969 750.28125 C 737.910156 750.019531 728.070312 750.085938 718.359375 751.09375 C 728.460938 751.683594 738.519531 753.085938 748.613281 753.832031 C 750.386719 753.890625 751.144531 752.085938 751.304688 750.578125 C 751.574219 748.757812 751.792969 746.929688 752.128906 745.121094 C 753.410156 739.144531 755.667969 735.429688 760.675781 732.761719 C 770.542969 728.394531 776.765625 738.488281 777.660156 749.175781 C 778.3125 742.042969 776.40625 733.09375 769.398438 729.703125 Z M 769.398438 729.703125 " fill-opacity="1" fill-rule="nonzero"/></g><path fill="#000000" d="M 806.472656 746.847656 C 806.058594 745.609375 805.304688 741.898438 804.8125 739.816406 C 804.542969 738.605469 804.238281 737.300781 803.949219 736.148438 C 803.960938 736.878906 803.976562 737.609375 804.003906 738.339844 C 804.140625 741.078125 804.164062 743.855469 804.597656 746.566406 C 795.195312 746.730469 787.285156 748.242188 777.863281 749.664062 C 786.96875 750.503906 797.9375 749.875 805.953125 748.40625 C 806.640625 748.238281 806.84375 747.402344 806.472656 746.847656 Z M 806.472656 746.847656 " fill-opacity="1" fill-rule="nonzero"/><path fill="#000000" d="M 785.109375 711.53125 C 787.378906 707.460938 790.414062 704.71875 794.828125 702.257812 C 796.550781 701.390625 797.839844 700.902344 799.90625 700.273438 C 801.386719 699.84375 802.921875 699.605469 804.382812 699.484375 C 804.265625 699.472656 804.148438 699.460938 804.03125 699.449219 C 794.207031 698.535156 782.839844 704.511719 780.46875 714.558594 C 778.523438 721.75 782.269531 729.511719 788.738281 733.011719 C 793.132812 735.550781 798.304688 736.101562 803.292969 736.144531 C 787.777344 733.648438 779.902344 723.320312 785.109375 711.53125 Z M 785.109375 711.53125 " fill-opacity="1" fill-rule="nonzero"/><path fill="#000000" d="M 804.347656 669.382812 C 802.839844 678.757812 801.699219 688.414062 803.75 697.792969 C 804.453125 688.386719 805.398438 678.671875 804.347656 669.382812 Z M 804.347656 669.382812 " fill-opacity="1" fill-rule="nonzero"/><path fill="#000000" d="M 787.035156 661.933594 C 781.96875 654.710938 783.910156 645.070312 788.78125 638.542969 C 791.167969 635.628906 794.070312 633.625 797.183594 632.195312 C 798.675781 631.550781 800.335938 631.160156 801.910156 630.960938 C 801.609375 630.941406 801.3125 630.929688 801.011719 630.921875 C 795.796875 630.8125 790.738281 633.304688 786.996094 636.828125 C 783.8125 640.097656 781.664062 644.382812 780.804688 648.855469 C 779.777344 654.410156 781.386719 660.621094 785.496094 664.597656 C 790.652344 669.332031 797.363281 669.9375 803.929688 669.734375 C 797.191406 668.929688 789.863281 666.054688 787.035156 661.933594 Z M 787.035156 661.933594 " fill-opacity="1" fill-rule="nonzero"/><path fill="#000000" d="M 805.242188 607.167969 C 805.21875 605.835938 803.84375 605.492188 802.746094 605.429688 C 795.714844 604.773438 789.75 603.628906 785.3125 598.25 C 782.621094 594.144531 781.34375 587.203125 784.804688 581.554688 C 788.085938 575.691406 794.863281 572.015625 802.496094 571.03125 C 803.136719 570.945312 804.574219 570.914062 803.203125 570.839844 C 797.421875 570.449219 791.296875 571.957031 786.609375 575.421875 C 778.855469 581.1875 776.761719 591.828125 782 600 C 785.273438 604.726562 790.789062 607.382812 796.402344 608.066406 C 798.347656 608.40625 800.320312 608.390625 802.289062 608.460938 C 802.285156 608.582031 802.28125 608.703125 802.277344 608.824219 C 802.363281 615.53125 802.34375 622.34375 803.671875 628.9375 C 803.453125 623.503906 804.273438 618.078125 804.667969 612.664062 C 804.824219 610.828125 805.042969 608.996094 805.242188 607.167969 Z M 805.242188 607.167969 " fill-opacity="1" fill-rule="nonzero"/><path fill="#000000" d="M 804.320312 544.730469 C 802.679688 552.871094 803.046875 561.285156 804.054688 569.488281 C 805.25 561.320312 804.96875 552.78125 804.320312 544.730469 Z M 804.320312 544.730469 " fill-opacity="1" fill-rule="nonzero"/><path fill="#000000" d="M 788.078125 535.390625 C 783.574219 528.410156 784.683594 519.574219 790.441406 513.761719 C 792.632812 511.601562 794.492188 510.394531 797.640625 508.894531 C 799.550781 507.960938 802.285156 506.980469 805.078125 506.832031 C 795.410156 505.953125 784.589844 511.890625 782.382812 521.785156 C 780.683594 527.648438 782.632812 534.238281 786.914062 538.515625 C 791.652344 542.945312 798.144531 544.476562 804.308594 543.574219 C 797.613281 543.410156 790.867188 539.746094 788.078125 535.390625 Z M 788.078125 535.390625 " fill-opacity="1" fill-rule="nonzero"/><path fill="#000000" d="M 805.058594 483.21875 C 804.433594 490.429688 804.335938 497.835938 805.542969 504.976562 C 805.554688 502.589844 806.148438 500.292969 806.246094 497.792969 C 806.523438 492.917969 805.777344 488 805.058594 483.21875 Z M 805.058594 483.21875 " fill-opacity="1" fill-rule="nonzero"/><path fill="#000000" d="M 786.785156 459.011719 C 787.554688 455.730469 791.652344 451.261719 794.039062 449.761719 C 797.339844 447.535156 800.570312 446.273438 804.585938 445.542969 C 804.21875 445.527344 803.847656 445.519531 803.480469 445.527344 C 793.195312 445.601562 783.019531 452.835938 782.371094 463.609375 C 781.867188 470.605469 785.570312 477.886719 792.246094 480.566406 C 796.113281 482.195312 800.410156 482.171875 804.535156 482.015625 C 799.671875 481.367188 794.148438 479.90625 791.421875 477.4375 C 785.851562 472.742188 784.757812 465.742188 786.785156 459.011719 Z M 786.785156 459.011719 " fill-opacity="1" fill-rule="nonzero"/><path fill="#000000" d="M 804.953125 417.125 C 804.035156 426.167969 804.082031 435.433594 805.324219 444.371094 C 806.746094 435.332031 806.367188 426.109375 804.953125 417.125 Z M 804.953125 417.125 " fill-opacity="1" fill-rule="nonzero"/><path fill="#000000" d="M 787.816406 395.546875 C 787.921875 391.175781 790.722656 386.65625 795.175781 382.808594 C 797.59375 380.617188 803.441406 377.867188 806.996094 377.210938 C 796.890625 377.289062 785.402344 384.339844 784.359375 395.066406 C 782.925781 408.210938 792.394531 416.398438 804.851562 416.511719 C 793.613281 414.140625 786.707031 406.75 787.816406 395.546875 Z M 787.816406 395.546875 " fill-opacity="1" fill-rule="nonzero"/><path fill="#000000" d="M 806.785156 349.769531 C 805.128906 358.09375 805.613281 366.988281 806.6875 375.0625 C 808.074219 366.738281 807.464844 358.019531 806.785156 349.769531 Z M 806.785156 349.769531 " fill-opacity="1" fill-rule="nonzero"/><path fill="#000000" d="M 790.609375 326.058594 C 792.941406 321.316406 795.84375 318.78125 800.398438 315.929688 C 802.882812 314.449219 805.199219 313.53125 808.164062 313.105469 C 807.828125 313.085938 807.488281 313.074219 807.152344 313.070312 C 797.613281 313.320312 787.617188 320.21875 785.886719 329.929688 C 784.714844 336.359375 787.59375 343.304688 792.988281 347.007812 C 796.703125 349.441406 801.339844 350.242188 805.722656 350.011719 C 801.140625 349.390625 796.894531 347.605469 794.0625 344.984375 C 788.78125 340.078125 787.832031 331.570312 790.609375 326.058594 Z M 790.609375 326.058594 " fill-opacity="1" fill-rule="nonzero"/><path fill="#000000" d="M 807.734375 286.59375 C 807.003906 294.207031 805.789062 301.898438 807.246094 309.507812 C 807.304688 309.894531 807.402344 310.636719 807.390625 311.273438 C 808.445312 303.328125 809.054688 293.902344 807.734375 286.59375 Z M 807.734375 286.59375 " fill-opacity="1" fill-rule="nonzero"/><path fill="#000000" d="M 789.484375 276.804688 C 787.347656 272.628906 787.234375 269.6875 788.246094 264.703125 C 789.875 257.890625 794.722656 252.917969 802.027344 250.816406 C 803.71875 250.261719 805.5 249.761719 807.242188 249.585938 C 806.632812 249.53125 806.019531 249.511719 805.410156 249.523438 C 794.011719 249.609375 784.992188 256.664062 784.125 268.347656 C 783.195312 280.542969 795.9375 288.964844 807.199219 286.160156 C 798.949219 286.3125 792.914062 282.503906 789.484375 276.804688 Z M 789.484375 276.804688 " fill-opacity="1" fill-rule="nonzero"/><path fill="#000000" d="M 805.816406 220.058594 C 805.351562 229.75 805.316406 239.628906 807.296875 249.164062 C 807.1875 245.328125 807.78125 241.503906 807.769531 237.667969 C 807.789062 231.875 806.90625 225.367188 805.816406 220.058594 Z M 805.816406 220.058594 " fill-opacity="1" fill-rule="nonzero"/><path fill="#000000" d="M 789.976562 195.089844 C 792.109375 192.453125 793.777344 191.5 796.902344 189.921875 C 798.628906 189.144531 801.359375 188.070312 803.976562 187.6875 C 805.035156 187.507812 806.730469 187.386719 808.019531 187.382812 C 807.601562 187.296875 807.179688 187.226562 806.757812 187.164062 C 797.621094 185.855469 786.230469 190.1875 784.046875 199.984375 C 782.953125 205.382812 785.195312 211.171875 789.015625 215.007812 C 793.152344 218.765625 799.160156 220.929688 804.730469 219.851562 C 799.363281 219.722656 794.878906 217.175781 791.472656 213.777344 C 786.617188 208.371094 785.757812 200.058594 789.976562 195.089844 Z M 789.976562 195.089844 " fill-opacity="1" fill-rule="nonzero"/><path fill="#000000" d="M 808.28125 164.1875 C 808.140625 161.792969 807.917969 159.125 807.574219 156.886719 C 807.554688 157.082031 807.53125 157.273438 807.511719 157.46875 C 806.503906 166.632812 805.417969 176.066406 807.792969 185.113281 C 807.882812 178.132812 808.828125 171.171875 808.28125 164.1875 Z M 808.28125 164.1875 " fill-opacity="1" fill-rule="nonzero"/><path fill="#000000" d="M 788.992188 135.011719 C 790.625 129.375 794.335938 124.628906 800.445312 121.878906 C 801.925781 121.191406 805.039062 120.507812 807.175781 120.453125 C 806.949219 120.421875 806.722656 120.394531 806.492188 120.371094 C 795.910156 118.855469 785.867188 127.808594 784.863281 138.199219 C 783.445312 150.59375 794.5 159.4375 806.382812 157.179688 C 792.773438 156.757812 785.828125 145.972656 788.992188 135.011719 Z M 788.992188 135.011719 " fill-opacity="1" fill-rule="nonzero"/><path fill="#000000" d="M 807.027344 91.546875 C 806.011719 100.730469 805.523438 110.175781 807.414062 119.277344 C 807.4375 115.085938 808.007812 110.921875 808.097656 106.734375 C 808.171875 102.035156 807.734375 95.058594 807.027344 91.546875 Z M 807.027344 91.546875 " fill-opacity="1" fill-rule="nonzero"/><path fill="#000000" d="M 793.972656 66.253906 C 797.082031 63.28125 803.386719 60.53125 807.539062 60.671875 C 798.863281 58.953125 787.480469 64.625 786.1875 73.960938 C 784.203125 84.816406 795.476562 94.398438 805.902344 91.203125 C 790.921875 91.992188 784.011719 74.632812 793.972656 66.253906 Z M 793.972656 66.253906 " fill-opacity="1" fill-rule="nonzero"/><path fill="#000000" d="M 805.6875 40.523438 C 801.527344 40.925781 797.457031 41.925781 793.351562 42.660156 C 789.769531 43.324219 786.136719 44.09375 782.601562 44.4375 C 783.589844 44.566406 784.585938 44.609375 785.582031 44.621094 C 790.285156 44.660156 795 44.582031 799.679688 44.09375 C 802.054688 43.90625 804.425781 43.441406 806.808594 43.351562 C 806.785156 48.941406 807.199219 54.523438 807.332031 60.109375 C 808.457031 54.917969 808.992188 49.613281 809.417969 44.324219 C 809.960938 40.910156 809.078125 40.1875 805.6875 40.523438 Z M 805.6875 40.523438 " fill-opacity="1" fill-rule="nonzero"/><path fill="#000000" d="M 782.675781 45.46875 C 781.636719 53.976562 773.855469 57.261719 766.222656 56.09375 C 765.964844 56.039062 764.839844 55.828125 764.566406 55.714844 C 763.144531 55.257812 762.605469 55.035156 760.957031 53.839844 C 760.304688 53.367188 758.074219 50.820312 757.191406 49.050781 C 755.601562 46.070312 754.488281 43.203125 753.972656 39.582031 C 753.945312 39.949219 753.925781 40.316406 753.910156 40.683594 C 753.738281 48.265625 757.320312 57.855469 765.765625 59.0625 C 774.074219 60.753906 783.914062 54.667969 782.675781 45.46875 Z M 782.675781 45.46875 " fill-opacity="1" fill-rule="nonzero"/><path fill="#000000" d="M 739.5625 38.21875 C 733.398438 38.234375 726.785156 39.238281 720.972656 40.234375 C 732.082031 40.628906 743.402344 40.863281 754.363281 38.773438 C 749.429688 38.695312 744.503906 38.09375 739.5625 38.21875 Z M 739.5625 38.21875 " fill-opacity="1" fill-rule="nonzero"/><path fill="#000000" d="M 721.1875 41.320312 C 721.988281 51.554688 714.589844 58.859375 706.230469 57.4375 C 696.773438 56.277344 691.59375 48.265625 687.65625 37.820312 C 689.257812 48.492188 694.332031 59.785156 706.492188 60.65625 C 717.089844 61.769531 724.097656 50.785156 721.1875 41.320312 Z M 721.1875 41.320312 " fill-opacity="1" fill-rule="nonzero"/><path fill="#000000" d="M 673.605469 37.074219 C 668.777344 37.175781 663.707031 37.878906 659.09375 38.738281 C 668.398438 38.890625 677.957031 39.632812 687.082031 37.464844 C 682.585938 37.578125 678.105469 36.964844 673.605469 37.074219 Z M 673.605469 37.074219 " fill-opacity="1" fill-rule="nonzero"/><path fill="#000000" d="M 658.8125 39.652344 C 658.773438 45.15625 656.839844 49.808594 653.300781 53.167969 C 650.414062 55.875 648.34375 56.917969 644.582031 56.972656 C 632.988281 57.976562 626.800781 48.304688 623.429688 39.273438 C 624.433594 49.597656 631.660156 60.773438 643.082031 60.433594 C 645.179688 60.371094 647.363281 60.265625 649.328125 59.472656 C 651.222656 58.722656 652.867188 57.421875 654.273438 55.964844 C 658.4375 51.722656 660.058594 45.421875 658.8125 39.652344 Z M 658.8125 39.652344 " fill-opacity="1" fill-rule="nonzero"/><path fill="#000000" d="M 588.238281 41.269531 C 599.839844 41.335938 611.625 41.898438 622.953125 38.929688 C 611.71875 39.054688 598.222656 39.195312 588.238281 41.269531 Z M 588.238281 41.269531 " fill-opacity="1" fill-rule="nonzero"/><path fill="#000000" d="M 588.53125 42.230469 C 589.207031 45.28125 588.078125 48.222656 586.359375 50.847656 C 582.511719 56.441406 576.636719 58.164062 569.316406 57.824219 C 565.742188 57.433594 561.3125 55.222656 558.164062 50.828125 C 556.382812 48.539062 553.527344 43.320312 552.613281 39.558594 C 552.425781 38.628906 552.574219 40.085938 552.601562 40.429688 C 553.609375 50.164062 560.082031 61.539062 571.070312 61.273438 C 576.066406 61.253906 581.222656 59.785156 584.765625 56.117188 C 588.078125 52.519531 590.445312 47.03125 588.53125 42.230469 Z M 588.53125 42.230469 " fill-opacity="1" fill-rule="nonzero"/><path fill="#000000" d="M 535.800781 38.753906 C 530.945312 39.007812 525.089844 39.855469 520.777344 40.300781 C 531.179688 40.796875 541.808594 40.875 552.046875 38.761719 C 546.632812 38.878906 541.214844 38.535156 535.800781 38.753906 Z M 535.800781 38.753906 " fill-opacity="1" fill-rule="nonzero"/><path fill="#000000" d="M 520.847656 41.691406 C 521.230469 45.566406 518.605469 50.335938 516.820312 52.585938 C 511.628906 59.480469 503.625 61.714844 497.464844 58.304688 C 491.675781 55.320312 488.28125 48.699219 486.425781 41.542969 C 486.328125 41.234375 486.292969 40.761719 486.226562 40.574219 C 486.210938 41.242188 486.230469 41.910156 486.28125 42.574219 C 486.929688 52.242188 492.921875 63.398438 503.839844 63.191406 C 510.546875 63.058594 516.371094 58.371094 519.15625 52.449219 C 520.710938 49.152344 521.75 45.3125 520.847656 41.691406 Z M 520.847656 41.691406 " fill-opacity="1" fill-rule="nonzero"/><path fill="#000000" d="M 457.5625 40.203125 C 466.742188 41.097656 475.964844 41.21875 485.097656 39.796875 C 476.074219 38.882812 466.210938 39.222656 457.5625 40.203125 Z M 457.5625 40.203125 " fill-opacity="1" fill-rule="nonzero"/><path fill="#000000" d="M 457.859375 41.691406 C 458.769531 46.484375 455.867188 51.027344 453.351562 54.039062 C 448.542969 59.21875 444.214844 60.914062 438.222656 59.257812 C 430.039062 57.257812 425.988281 48.164062 424.09375 40.355469 C 424.222656 50.171875 429.109375 61.183594 439.804688 62.796875 C 444.402344 63.667969 449.246094 62.011719 452.339844 58.5 C 456.511719 54.332031 460.003906 47.597656 457.859375 41.691406 Z M 457.859375 41.691406 " fill-opacity="1" fill-rule="nonzero"/><path fill="#000000" d="M 408.21875 38.601562 C 403.113281 38.625 396.953125 39.226562 392.386719 39.3125 C 402.789062 40.984375 413.632812 40.851562 424.097656 39.453125 C 418.808594 39.101562 413.523438 38.546875 408.21875 38.601562 Z M 408.21875 38.601562 " fill-opacity="1" fill-rule="nonzero"/><path fill="#000000" d="M 392.6875 40.992188 C 392.988281 41.859375 392.757812 42.667969 392.574219 43.53125 C 391.972656 45.996094 390.601562 47.972656 389.105469 49.777344 C 383.914062 55.824219 377.585938 58.253906 370.675781 55.902344 C 367.902344 54.992188 363.816406 51.472656 362.203125 48.585938 C 360.375 45.671875 359.464844 42.933594 358.558594 39.546875 C 358.582031 39.976562 358.609375 40.402344 358.644531 40.832031 C 358.90625 50.003906 365.433594 59.910156 375.339844 59.988281 C 381.980469 60.269531 387.875 55.691406 390.960938 50.074219 C 392.390625 47.476562 393.847656 43.90625 392.6875 40.992188 Z M 392.6875 40.992188 " fill-opacity="1" fill-rule="nonzero"/><path fill="#000000" d="M 328.746094 40.527344 C 338.644531 41.386719 348.671875 40.929688 358.445312 39.171875 C 348.640625 38.59375 338.121094 39.335938 328.746094 40.527344 Z M 328.746094 40.527344 " fill-opacity="1" fill-rule="nonzero"/><path fill="#000000" d="M 329.199219 41.867188 C 329.253906 46.601562 325.417969 50.683594 322.539062 52.78125 C 315.289062 57.679688 307.410156 56.910156 301.542969 50.71875 C 299.511719 48.589844 298.714844 47.515625 297.167969 44.363281 C 296.535156 42.996094 295.8125 40.886719 295.375 39.050781 C 295.378906 39.25 295.386719 39.449219 295.398438 39.648438 C 295.601562 47.925781 300.960938 56.753906 309.316406 58.8125 C 315.882812 60.34375 322.855469 57.117188 326.609375 51.660156 C 328.558594 48.871094 329.949219 45.289062 329.199219 41.867188 Z M 329.199219 41.867188 " fill-opacity="1" fill-rule="nonzero"/><path fill="#000000" d="M 294.960938 37.585938 C 288.910156 37.332031 282.855469 37.191406 276.800781 37.433594 C 275.613281 37.546875 274.4375 37.078125 273.863281 38.828125 C 273.15625 43.316406 274.058594 47.910156 274.191406 52.421875 C 274.242188 52.945312 274.253906 54 274.300781 54.210938 C 275.320312 49.476562 275.320312 43.550781 275.972656 39.703125 C 279.191406 39.261719 289.480469 38.648438 294.960938 37.585938 Z M 294.960938 37.585938 " fill-opacity="1" fill-rule="nonzero"/><path fill="#000000" d="M 286.527344 58.714844 C 282.972656 56.691406 278.804688 54.964844 274.648438 55.738281 C 276.574219 55.667969 278.722656 56.476562 280.117188 57.132812 C 283.382812 58.789062 285.34375 60.257812 287.777344 62.730469 C 292.453125 67.636719 293.730469 73.535156 291.050781 78.878906 C 288.53125 83.882812 283.949219 87.417969 278.386719 89.308594 C 276.015625 90.03125 273.722656 90.488281 271.304688 90.574219 C 271.769531 90.652344 272.234375 90.710938 272.699219 90.753906 C 282.398438 91.800781 293.449219 86.003906 295.617188 76.007812 C 297.246094 68.910156 292.425781 62.195312 286.527344 58.714844 Z M 286.527344 58.714844 " fill-opacity="1" fill-rule="nonzero"/><path fill="#000000" d="M 271.371094 92.03125 C 271.433594 100.332031 269.582031 110.824219 270.777344 118.050781 C 271.859375 109.75 273.566406 100.5625 271.371094 92.03125 Z M 271.371094 92.03125 " fill-opacity="1" fill-rule="nonzero"/><path fill="#000000" d="M 272.398438 119.265625 C 281.3125 121.902344 289.800781 129.417969 290.335938 136.160156 C 290.628906 141.667969 288.277344 146.613281 284.238281 149.414062 C 281.4375 151.328125 278.882812 152.484375 275.964844 152.625 C 274.449219 152.742188 272.839844 152.660156 271.378906 152.433594 C 271.6875 152.550781 271.996094 152.65625 272.308594 152.753906 C 279.320312 155.191406 287.589844 151.960938 291.449219 145.707031 C 299.363281 131.683594 285.6875 120.503906 272.398438 119.265625 Z M 272.398438 119.265625 " fill-opacity="1" fill-rule="nonzero"/><path fill="#000000" d="M 270.34375 153.042969 C 268.558594 163.140625 268.261719 173.640625 269.222656 183.714844 C 270.59375 173.558594 270.941406 163.273438 270.34375 153.042969 Z M 270.34375 153.042969 " fill-opacity="1" fill-rule="nonzero"/><path fill="#000000" d="M 283.382812 188.171875 C 279.671875 185.847656 275.179688 184.058594 270.753906 184.148438 C 272.578125 184.292969 274.0625 184.992188 275.558594 185.679688 C 281.007812 188.238281 284.71875 191.359375 287.398438 196.214844 C 290.289062 201.847656 290.914062 209.714844 286.507812 215.40625 C 284.996094 217.242188 281.355469 220.390625 277.945312 221.644531 C 276.71875 222.25 272.53125 223.113281 271.34375 223.203125 C 280.601562 224.039062 291.191406 218.128906 292.5625 208.386719 C 294.039062 200.519531 290.1875 192.308594 283.382812 188.171875 Z M 283.382812 188.171875 " fill-opacity="1" fill-rule="nonzero"/><path fill="#000000" d="M 270.453125 223.308594 C 270.480469 228.226562 270.015625 233.160156 270.476562 238.074219 C 270.785156 241.773438 271.378906 244.804688 271.636719 248.097656 C 272.558594 239.882812 272.097656 231.402344 270.453125 223.308594 Z M 270.453125 223.308594 " fill-opacity="1" fill-rule="nonzero"/><path fill="#000000" d="M 286.457031 253.171875 C 283 250.152344 278.394531 247.925781 273.722656 248.21875 C 276.453125 248.457031 278.5 249.578125 280.824219 251.113281 C 288.296875 255.964844 290.472656 265.792969 285.886719 273.699219 C 283.371094 277.773438 278.679688 280.636719 273.167969 282.003906 C 272.054688 282.257812 270.917969 282.339844 269.777344 282.261719 C 270.175781 282.367188 270.578125 282.441406 270.984375 282.5 C 276.0625 282.949219 281.3125 281.128906 285.382812 278.132812 C 288.421875 275.746094 290.433594 272.164062 291.1875 268.398438 C 292.195312 262.984375 290.523438 256.96875 286.457031 253.171875 Z M 286.457031 253.171875 " fill-opacity="1" fill-rule="nonzero"/><path fill="#000000" d="M 269.679688 283.617188 C 268.835938 293.945312 268.71875 304.671875 270.917969 314.722656 C 271.136719 304.335938 271.082031 293.929688 269.679688 283.617188 Z M 269.679688 283.617188 " fill-opacity="1" fill-rule="nonzero"/><path fill="#000000" d="M 286.75 318.46875 C 282.976562 315.476562 277.679688 314.078125 272.953125 315.117188 C 276.054688 314.847656 279.113281 316.019531 281.542969 317.230469 C 288.535156 320.96875 290.859375 329.152344 289.246094 335.984375 C 288.070312 341.464844 284.492188 345.859375 279.183594 348.800781 C 277.347656 349.796875 275.628906 350.558594 273.5 350.867188 C 273.71875 350.875 273.933594 350.878906 274.152344 350.875 C 282.914062 350.066406 290.449219 343.859375 292.242188 335.527344 C 293.703125 329.453125 291.65625 322.441406 286.75 318.46875 Z M 286.75 318.46875 " fill-opacity="1" fill-rule="nonzero"/><path fill="#000000" d="M 273.078125 350.890625 C 273.402344 360.023438 273.269531 370.4375 274.292969 378.925781 C 274.972656 369.597656 275.351562 360.039062 273.078125 350.890625 Z M 273.078125 350.890625 " fill-opacity="1" fill-rule="nonzero"/><path fill="#000000" d="M 275.53125 378.683594 C 281.378906 379.257812 285.9375 382 288.097656 386.757812 C 290.054688 391.40625 290.644531 397.863281 287.089844 402.527344 C 287.28125 402.417969 285.398438 404.460938 284.632812 404.96875 C 284.664062 404.945312 284.714844 404.90625 284.792969 404.84375 C 284.25 405.230469 283.699219 405.605469 283.140625 405.960938 C 282.464844 406.445312 280.789062 407.226562 280.523438 407.335938 C 278.671875 408.113281 276.710938 408.652344 274.710938 408.859375 C 274.992188 408.886719 275.273438 408.90625 275.554688 408.921875 C 282.847656 409.171875 290.851562 405.144531 292.320312 397.34375 C 294.1875 386.507812 286.828125 377.367188 275.53125 378.683594 Z M 275.53125 378.683594 " fill-opacity="1" fill-rule="nonzero"/><path fill="#000000" d="M 274.644531 409.914062 C 274.207031 418.457031 273.960938 428.003906 275.421875 436.035156 C 275.84375 427.324219 276.097656 418.554688 274.644531 409.914062 Z M 274.644531 409.914062 " fill-opacity="1" fill-rule="nonzero"/><path fill="#000000" d="M 289.050781 441.800781 C 285.894531 439.027344 281.957031 436.738281 277.667969 436.617188 C 281.625 437.539062 284.316406 439.84375 287.027344 442.726562 C 293.695312 450.199219 292.871094 462.472656 285.921875 470.097656 C 283.035156 473.101562 276.839844 475.746094 272.492188 476.085938 C 277.460938 476.554688 282.625 475.109375 286.832031 472.472656 C 290.394531 469.984375 292.75 466.09375 294.027344 461.996094 C 296.214844 455.042969 294.570312 446.761719 289.050781 441.800781 Z M 289.050781 441.800781 " fill-opacity="1" fill-rule="nonzero"/><path fill="#000000" d="M 272.234375 477.511719 C 271.269531 486.359375 270.277344 497.9375 271.910156 505.484375 C 272.855469 496.179688 273.558594 486.816406 272.234375 477.511719 Z M 272.234375 477.511719 " fill-opacity="1" fill-rule="nonzero"/><path fill="#000000" d="M 282.9375 508.710938 C 281.046875 507.738281 278.746094 506.792969 276.167969 506.46875 C 275.539062 506.441406 274.804688 506.269531 274.234375 506.570312 C 274.6875 506.386719 275.242188 506.628906 275.714844 506.71875 C 278.023438 507.402344 280.078125 508.671875 282.148438 510.207031 C 289.773438 515.46875 291.0625 526.171875 285.519531 533.386719 C 282.777344 536.78125 279.15625 538.542969 274.652344 539.5 C 274.40625 539.574219 274.058594 539.578125 273.898438 539.632812 C 274.386719 539.664062 274.878906 539.675781 275.367188 539.667969 C 279.292969 539.582031 283.289062 538.347656 286.335938 535.828125 C 289.515625 533.007812 291.695312 528.945312 292.054688 524.695312 C 292.679688 517.933594 289.046875 511.644531 282.9375 508.710938 Z M 282.9375 508.710938 " fill-opacity="1" fill-rule="nonzero"/><path fill="#000000" d="M 270.542969 540.46875 C 269.441406 550.378906 269.019531 561.613281 270.292969 570.917969 C 271.734375 560.84375 271.960938 550.558594 270.542969 540.46875 Z M 270.542969 540.46875 " fill-opacity="1" fill-rule="nonzero"/><path fill="#000000" d="M 287.105469 583.292969 C 286.011719 580.082031 283.253906 576.890625 280.976562 575.300781 C 278.507812 573.5 275.691406 572.027344 272.582031 571.894531 C 274.949219 572.496094 276.839844 573.773438 278.257812 575.089844 C 281.652344 578.128906 283.484375 580.835938 284.484375 584.6875 C 285.09375 587.535156 284.675781 590.898438 283.820312 594.140625 C 282.851562 598.210938 281.324219 600.570312 277.941406 603.5625 C 276.253906 604.902344 273.1875 607.078125 270.519531 607.851562 C 273.367188 607.78125 278.253906 605.699219 281.03125 603.40625 C 284.191406 601.042969 286.125 597.492188 287.09375 593.722656 C 288.003906 590.351562 288.332031 586.625 287.105469 583.292969 Z M 287.105469 583.292969 " fill-opacity="1" fill-rule="nonzero"/><path fill="#000000" d="M 269.429688 609.554688 C 268.769531 616.699219 268.285156 625.917969 269.414062 632.0625 C 270.304688 624.589844 270.738281 617.007812 269.429688 609.554688 Z M 269.429688 609.554688 " fill-opacity="1" fill-rule="nonzero"/><path fill="#000000" d="M 270.726562 632 C 273.082031 632.570312 275.65625 634.34375 277.164062 635.546875 C 279.785156 637.671875 281.117188 639.042969 282.605469 641.78125 C 286.4375 648.664062 286.691406 659.011719 282.3125 664.585938 C 280.558594 666.667969 276.960938 668.730469 274.285156 669.792969 C 272.460938 670.515625 270.546875 670.980469 268.640625 671.109375 C 268.378906 671.097656 268.144531 671.144531 268.609375 671.175781 C 272.398438 671.675781 276.25 670.761719 279.703125 669.210938 C 283.1875 667.738281 286.027344 665.042969 287.410156 661.488281 C 292.46875 648.707031 284.714844 633.707031 270.726562 632 Z M 270.726562 632 " fill-opacity="1" fill-rule="nonzero"/><path fill="#000000" d="M 268.203125 672.066406 C 266.582031 681.253906 266.574219 690.960938 267.359375 700.152344 C 267.828125 694.03125 268.578125 687.914062 268.539062 681.769531 C 268.597656 678.53125 268.03125 675.296875 268.203125 672.066406 Z M 268.203125 672.066406 " fill-opacity="1" fill-rule="nonzero"/><path fill="#000000" d="M 281.144531 701.972656 C 277.167969 700.335938 272.75 700.226562 268.511719 699.9375 C 273.078125 701.03125 277.101562 701.976562 280.746094 704.234375 C 286.324219 707.542969 287.359375 713.613281 285.539062 717.792969 C 282.875 723.335938 277.878906 726.617188 271.460938 728.195312 C 271.328125 728.261719 271.222656 728.222656 271.15625 728.273438 C 272.199219 728.261719 273.242188 728.183594 274.273438 728.035156 C 281.472656 727.113281 288.964844 721.796875 289.449219 714.078125 C 289.867188 708.699219 286.050781 703.832031 281.144531 701.972656 Z M 281.144531 701.972656 " fill-opacity="1" fill-rule="nonzero"/><path fill="#000000" d="M 270.5625 731.078125 C 270.363281 730.566406 270.265625 729.972656 269.902344 729.546875 C 269.863281 729.515625 269.796875 729.488281 269.742188 729.507812 C 269.996094 729.566406 269.96875 729.945312 270.019531 730.15625 C 270.257812 732.785156 270.277344 735.429688 270.441406 738.066406 C 270.628906 741.542969 271.628906 748.226562 272.46875 749.976562 C 272.464844 743.648438 272.460938 737.175781 270.5625 731.078125 Z M 270.5625 731.078125 " fill-opacity="1" fill-rule="nonzero"/><path fill="#000000" d="M 735.675781 80.390625 C 713.730469 81.023438 691.773438 80.253906 669.824219 80.84375 C 606.148438 81.855469 542.457031 82.226562 478.78125 83.289062 C 443.242188 83.53125 407.710938 82.347656 372.171875 83.023438 C 352.285156 83.34375 332.378906 82.277344 312.503906 83.230469 C 346.554688 86.078125 380.75 84.257812 414.871094 84.6875 C 468.171875 85.652344 521.464844 84.488281 574.761719 83.917969 C 609.328125 83.207031 643.902344 83.441406 678.46875 82.578125 C 698.101562 82.234375 717.738281 82.878906 737.367188 82.226562 C 746.621094 82.066406 756.917969 81.320312 765.523438 80.585938 C 755.585938 80.011719 745.625 80.09375 735.675781 80.390625 Z M 735.675781 80.390625 " fill-opacity="1" fill-rule="nonzero"/><path fill="#000000" d="M 738.582031 703.828125 C 720.511719 703.84375 702.453125 704.90625 684.382812 704.773438 C 653.621094 704.339844 622.867188 703.820312 592.101562 704.125 C 542.605469 703.804688 493.105469 703.566406 443.605469 703.058594 C 417.96875 702.558594 392.328125 702.179688 366.6875 701.726562 C 348.140625 701.269531 329.601562 700.496094 311.046875 700.496094 C 323.152344 702.246094 335.367188 702.664062 347.578125 703 C 363.285156 703.523438 379 703.832031 394.714844 704.015625 C 432.527344 704.714844 470.339844 705.191406 508.15625 705.296875 C 552.183594 705.851562 596.210938 705.957031 640.238281 705.996094 C 657.566406 706.1875 674.894531 706.757812 692.226562 706.632812 C 707.332031 706.515625 722.421875 705.730469 737.527344 705.707031 C 747.730469 705.722656 759.269531 705.550781 768.699219 704.847656 C 758.679688 704.117188 748.632812 703.707031 738.582031 703.828125 Z M 738.582031 703.828125 " fill-opacity="1" fill-rule="nonzero"/><path fill="#000000" d="M 311.773438 170.710938 C 310.988281 143.660156 312.664062 116.53125 310.648438 89.527344 C 308.710938 147.476562 311.105469 205.460938 311.085938 263.425781 C 311.296875 314.414062 310.511719 365.402344 310.59375 416.390625 C 310.4375 501.808594 310.035156 587.238281 308.332031 672.640625 C 308.1875 682.617188 307.8125 692.648438 308.914062 702.582031 C 309.296875 692.390625 310.015625 677.039062 310.105469 664.996094 C 312.019531 567.628906 312.136719 470.242188 312.152344 372.859375 C 312.640625 305.476562 313.039062 238.089844 311.773438 170.710938 Z M 311.773438 170.710938 " fill-opacity="1" fill-rule="nonzero"/><path fill="#000000" d="M 767.273438 131.691406 C 767.1875 116.089844 767.402344 100.460938 765.980469 84.902344 C 765.183594 107.753906 765.675781 130.613281 765.558594 153.46875 C 765.480469 181.800781 765.027344 210.132812 764.621094 238.464844 C 764.300781 287.511719 762.171875 336.523438 762.222656 385.574219 C 762.203125 411.644531 763.070312 437.703125 763.300781 463.769531 C 763.390625 491.074219 763.007812 518.378906 763.042969 545.6875 C 762.976562 582.25 760.847656 618.816406 762.035156 655.378906 C 762.398438 668.261719 762.691406 683.132812 764.082031 694.828125 C 764.644531 681.597656 764.371094 668.355469 763.90625 655.128906 C 763 628.8125 764.027344 602.484375 764.476562 576.167969 C 765.039062 554.136719 764.902344 532.101562 764.984375 510.066406 C 765.816406 461.167969 763.601562 412.292969 763.960938 363.398438 C 764.042969 339.289062 764.898438 315.195312 765.492188 291.09375 C 766.039062 260.460938 766.375 229.820312 766.839844 199.183594 C 767.179688 176.6875 767.375 154.191406 767.273438 131.691406 Z M 767.273438 131.691406 " fill-opacity="1" fill-rule="nonzero"/><path fill="#000000" d="M 768.527344 604.699219 C 767.367188 627.238281 767.285156 649.839844 767.734375 672.402344 C 767.75 672.976562 767.761719 673.6875 767.777344 674.097656 C 767.820312 673.027344 767.867188 671.957031 767.914062 670.886719 C 768.917969 648.84375 769.484375 626.753906 768.527344 604.699219 Z M 768.527344 604.699219 " fill-opacity="1" fill-rule="nonzero"/><path fill="#000000" d="M 768.472656 675.652344 C 767.144531 682.828125 767.128906 691.714844 767.484375 698.203125 C 768.632812 690.789062 768.753906 683.179688 768.472656 675.652344 Z M 768.472656 675.652344 " fill-opacity="1" fill-rule="nonzero"/><path fill="#000000" d="M 772.289062 632.875 C 772.375 639.925781 771.625 646.949219 771.398438 653.988281 C 770.925781 664.9375 770.851562 676.613281 770.957031 687.222656 C 772.464844 669.179688 773.945312 650.953125 772.289062 632.875 Z M 772.289062 632.875 " fill-opacity="1" fill-rule="nonzero"/><path fill="#000000" d="M 303.285156 586.40625 C 302.421875 615.59375 302.722656 644.804688 302.582031 674.003906 C 302.582031 675.0625 302.558594 676.449219 302.5625 677.28125 C 302.664062 676.152344 302.753906 675.027344 302.84375 673.898438 C 304.117188 658.371094 304.183594 642.78125 304.179688 627.210938 C 304.222656 613.605469 304.332031 599.984375 303.285156 586.40625 Z M 303.285156 586.40625 " fill-opacity="1" fill-rule="nonzero"/><path fill="#000000" d="M 302.648438 684.359375 C 302.113281 691.78125 302.1875 699.59375 302.597656 706.832031 C 303.554688 699.382812 303.746094 691.808594 302.648438 684.359375 Z M 302.648438 684.359375 " fill-opacity="1" fill-rule="nonzero"/><path fill="#000000" d="M 302.332031 543.691406 C 301.769531 556.800781 301.660156 571.046875 302.308594 583.597656 C 303.394531 570.316406 303.792969 556.960938 302.332031 543.691406 Z M 302.332031 543.691406 " fill-opacity="1" fill-rule="nonzero"/><path fill="#000000" d="M 297.339844 557.574219 C 297.273438 576.378906 296.6875 595.855469 297.589844 614.328125 C 298.511719 595.4375 299.460938 576.417969 297.339844 557.574219 Z M 297.339844 557.574219 " fill-opacity="1" fill-rule="nonzero"/><path fill="#000000" d="M 295.980469 637.6875 C 294.757812 654.777344 295.257812 672.078125 296.203125 689.085938 C 297.191406 671.957031 296.703125 654.816406 295.980469 637.6875 Z M 295.980469 637.6875 " fill-opacity="1" fill-rule="nonzero"/><path fill="#000000" d="M 771.910156 690.324219 C 770.824219 696.871094 770.96875 703.664062 771.316406 710.199219 C 772.125 703.597656 772.148438 696.960938 771.910156 690.324219 Z M 771.910156 690.324219 " fill-opacity="1" fill-rule="nonzero"/><path fill="#000000" d="M 772.277344 611.949219 C 771.988281 616.757812 772.273438 621.644531 773.078125 626.359375 C 773.351562 621.542969 773.027344 616.714844 772.277344 611.949219 Z M 772.277344 611.949219 " fill-opacity="1" fill-rule="nonzero"/><path fill="#000000" d="M 711.148438 711.421875 C 729.300781 712.019531 747.488281 712.027344 765.589844 710.335938 C 747.542969 709.351562 728.851562 710.425781 711.148438 711.421875 Z M 711.148438 711.421875 " fill-opacity="1" fill-rule="nonzero"/><path fill="#000000" d="M 669.253906 711.433594 C 681.796875 712.582031 694.390625 712.710938 706.953125 711.785156 C 694.425781 710.484375 681.765625 710.867188 669.253906 711.433594 Z M 669.253906 711.433594 " fill-opacity="1" fill-rule="nonzero"/><path fill="#000000" d="M 705.269531 715.78125 C 721.394531 716.554688 737.574219 717.164062 753.6875 715.847656 C 737.644531 714.816406 721.054688 714.738281 705.269531 715.78125 Z M 705.269531 715.78125 " fill-opacity="1" fill-rule="nonzero"/><path fill="#000000" d="M 342.21875 708.554688 C 341.515625 708.5625 340.777344 708.566406 340.109375 708.570312 C 341.457031 708.652344 342.804688 708.734375 344.152344 708.816406 C 359.144531 709.800781 374.164062 710.191406 389.183594 710.539062 C 401.769531 710.796875 414.382812 711.109375 426.949219 710.203125 C 398.726562 709.054688 370.46875 708.378906 342.21875 708.554688 Z M 342.21875 708.554688 " fill-opacity="1" fill-rule="nonzero"/><path fill="#000000" d="M 428.523438 711.519531 C 450.164062 712.839844 471.851562 713.152344 493.523438 712.484375 C 471.933594 710.28125 450.15625 711.078125 428.523438 711.519531 Z M 428.523438 711.519531 " fill-opacity="1" fill-rule="nonzero"/><path fill="#000000" d="M 399.804688 713.621094 C 419.941406 715.351562 440.234375 716.410156 460.425781 715.144531 C 440.269531 714.101562 419.890625 713.335938 399.804688 713.621094 Z M 399.804688 713.621094 " fill-opacity="1" fill-rule="nonzero"/><path fill="#000000" d="M 355.113281 76.816406 C 354.613281 76.828125 354.03125 76.839844 353.652344 76.855469 C 354.726562 76.90625 355.796875 76.957031 356.867188 77.003906 C 377.789062 77.902344 398.824219 78.644531 419.714844 76.792969 C 398.183594 76.324219 376.644531 76.117188 355.113281 76.816406 Z M 355.113281 76.816406 " fill-opacity="1" fill-rule="nonzero"/><path fill="#000000" d="M 317.359375 76.523438 C 327.40625 77.714844 337.578125 78.210938 347.65625 77.164062 C 337.671875 76.46875 327.066406 76.242188 317.359375 76.523438 Z M 317.359375 76.523438 " fill-opacity="1" fill-rule="nonzero"/><path fill="#000000" d="M 423.820312 77.289062 C 441.515625 78.457031 459.289062 78.925781 476.988281 77.53125 C 459.378906 76.539062 441.140625 76.628906 423.820312 77.289062 Z M 423.820312 77.289062 " fill-opacity="1" fill-rule="nonzero"/><path fill="#000000" d="M 405.441406 73.027344 C 419 73.789062 432.570312 73.746094 446.125 72.882812 C 432.652344 71.964844 418.6875 72.347656 405.441406 73.027344 Z M 405.441406 73.027344 " fill-opacity="1" fill-rule="nonzero"/><path fill="#000000" d="M 341.320312 72.863281 C 351.78125 73.59375 362.300781 73.949219 372.765625 73.082031 C 362.429688 72.515625 351.257812 72.308594 341.320312 72.863281 Z M 341.320312 72.863281 " fill-opacity="1" fill-rule="nonzero"/><path fill="#000000" d="M 381.207031 72.289062 C 387.257812 72.847656 393.335938 72.777344 399.386719 72.292969 C 393.390625 71.800781 387.039062 71.753906 381.207031 72.289062 Z M 381.207031 72.289062 " fill-opacity="1" fill-rule="nonzero"/><path fill="#000000" d="M 771.28125 77.734375 C 770.550781 89.257812 770.445312 101.820312 771.324219 112.828125 C 771.703125 101.140625 772.449219 89.398438 771.28125 77.734375 Z M 771.28125 77.734375 " fill-opacity="1" fill-rule="nonzero"/><path fill="#000000" d="M 771.609375 118.140625 C 770.921875 125.484375 771.097656 132.988281 771.851562 140.242188 C 772.359375 132.882812 772.4375 125.484375 771.609375 118.140625 Z M 771.609375 118.140625 " fill-opacity="1" fill-rule="nonzero"/><path fill="#000000" d="M 775.738281 93.839844 C 774.515625 104.195312 774.929688 114.675781 775.742188 125.003906 C 776.640625 114.628906 776.726562 104.210938 775.738281 93.839844 Z M 775.738281 93.839844 " fill-opacity="1" fill-rule="nonzero"/><path fill="#000000" d="M 775.652344 128.183594 C 774.882812 132.410156 775.058594 136.761719 775.378906 141 C 775.929688 136.742188 775.863281 132.460938 775.652344 128.183594 Z M 775.652344 128.183594 " fill-opacity="1" fill-rule="nonzero"/><path fill="#000000" d="M 771.796875 142.742188 C 771.585938 152.398438 771.238281 164.597656 772.378906 172.972656 C 773.082031 162.914062 773.445312 152.730469 771.796875 142.742188 Z M 771.796875 142.742188 " fill-opacity="1" fill-rule="nonzero"/><path fill="#000000" d="M 775.933594 144.980469 C 775.632812 148.40625 775.847656 151.972656 776.449219 155.292969 C 776.640625 151.847656 776.441406 148.394531 775.933594 144.980469 Z M 775.933594 144.980469 " fill-opacity="1" fill-rule="nonzero"/><path fill="#000000" d="M 367.230469 713.898438 C 372.359375 714.304688 377.5 714.773438 382.652344 714.703125 C 386.503906 714.640625 390.347656 714.214844 394.203125 714.277344 C 385.289062 712.960938 376.167969 713.488281 367.230469 713.898438 Z M 367.230469 713.898438 " fill-opacity="1" fill-rule="nonzero"/><path fill="#000000" d="M 769.179688 295.792969 C 767.867188 311.695312 767.773438 329.1875 768.203125 344.359375 C 769.390625 328.199219 770.363281 311.988281 769.179688 295.792969 Z M 769.179688 295.792969 " fill-opacity="1" fill-rule="nonzero"/><path fill="#000000" d="M 768.492188 349.417969 C 766.347656 361.421875 766.984375 373.617188 767.148438 385.742188 C 768.550781 373.652344 768.746094 361.824219 768.492188 349.417969 Z M 768.492188 349.417969 " fill-opacity="1" fill-rule="nonzero"/><path fill="#000000" d="M 774.210938 320.425781 C 772.539062 333.332031 772.894531 346.425781 773.902344 359.328125 C 774.96875 346.382812 774.847656 333.386719 774.210938 320.425781 Z M 774.210938 320.425781 " fill-opacity="1" fill-rule="nonzero"/><path fill="#000000" d="M 545.957031 76.613281 C 535.554688 76.648438 525.125 76.449219 514.769531 77.632812 C 538.367188 78.785156 562.960938 78.230469 586.050781 76.695312 C 572.6875 76.238281 559.324219 76.359375 545.957031 76.613281 Z M 545.957031 76.613281 " fill-opacity="1" fill-rule="nonzero"/><path fill="#000000" d="M 590.792969 76.226562 C 604.15625 78.175781 617.757812 77.378906 631.097656 76.160156 C 617.664062 75.59375 604.226562 75.605469 590.792969 76.226562 Z M 590.792969 76.226562 " fill-opacity="1" fill-rule="nonzero"/><path fill="#000000" d="M 573.527344 72.339844 C 583.414062 73.738281 593.457031 73.164062 603.351562 72.542969 C 593.421875 71.644531 583.46875 71.6875 573.527344 72.339844 Z M 573.527344 72.339844 " fill-opacity="1" fill-rule="nonzero"/><path fill="#000000" d="M 303.089844 99.632812 C 302.957031 120.804688 303.445312 141.976562 304.449219 163.128906 C 304.46875 163.601562 304.488281 164.144531 304.507812 164.511719 C 304.535156 163.515625 304.566406 162.515625 304.59375 161.519531 C 305.113281 140.902344 305.496094 120.152344 303.089844 99.632812 Z M 303.089844 99.632812 " fill-opacity="1" fill-rule="nonzero"/><path fill="#000000" d="M 303.300781 168.824219 C 303.210938 177.480469 303.359375 186.578125 304.253906 194.976562 C 304.757812 186.257812 304.96875 177.441406 303.300781 168.824219 Z M 303.300781 168.824219 " fill-opacity="1" fill-rule="nonzero"/><path fill="#000000" d="M 298.257812 136.308594 C 297.585938 148.535156 297.960938 161.671875 298.863281 173.429688 C 299.742188 161.058594 300.007812 148.617188 298.257812 136.308594 Z M 298.257812 136.308594 " fill-opacity="1" fill-rule="nonzero"/></svg>