<svg xmlns="http://www.w3.org/2000/svg" xmlns:xlink="http://www.w3.org/1999/xlink" width="1080" zoomAndPan="magnify" viewBox="0 0 810 809.999993" height="1080" preserveAspectRatio="xMidYMid meet" version="1.0"><defs><filter x="0%" y="0%" width="100%" height="100%" id="6c5ad6da16"><feColorMatrix values="0 0 0 0 1 0 0 0 0 1 0 0 0 0 1 0 0 0 1 0" color-interpolation-filters="sRGB"/></filter><clipPath id="b4619d1563"><path d="M 213.636719 1 L 596.136719 1 L 596.136719 809 L 213.636719 809 Z M 213.636719 1 " clip-rule="nonzero"/></clipPath><mask id="55b8da1a16"><g filter="url(#6c5ad6da16)"><rect x="-81" width="972" fill="#000000" y="-80.999999" height="971.999992" fill-opacity="0.01"/></g></mask><clipPath id="27a90e2f08"><path d="M 0 0 L 810 0 L 810 810 L 0 810 Z M 0 0 " clip-rule="nonzero"/></clipPath><clipPath id="0778c8521d"><rect x="0" width="810" y="0" height="810"/></clipPath></defs><g clip-path="url(#b4619d1563)"><path fill="#faeaff" d="M 508.066406 134.34375 L 596.359375 134.34375 L 596.359375 1.222656 L 483.613281 1.222656 L 483.613281 1.730469 C 335.382812 7.164062 304.820312 90.195312 302.273438 177.980469 L 301.933594 177.980469 L 301.933594 270.351562 L 213.636719 270.351562 L 213.636719 403.640625 L 301.933594 403.640625 L 301.933594 808.777344 L 460.351562 808.777344 L 460.351562 403.640625 L 573.945312 403.640625 L 596.359375 270.351562 L 460.351562 270.351562 L 460.351562 187.660156 C 460.351562 158.285156 480.050781 134.34375 508.066406 134.34375 Z M 508.066406 134.34375 " fill-opacity="1" fill-rule="nonzero"/></g><g mask="url(#55b8da1a16)"><g transform="matrix(1, 0, 0, 1, 0, 0.000000000000039746)"><g clip-path="url(#0778c8521d)"><g clip-path="url(#27a90e2f08)"><rect x="-178.2" width="1166.4" fill="#faeaff" height="1166.39999" y="-178.199998" fill-opacity="1"/></g></g></g></g></svg>