<svg xmlns="http://www.w3.org/2000/svg" xmlns:xlink="http://www.w3.org/1999/xlink" width="1080" zoomAndPan="magnify" viewBox="0 0 810 809.999993" height="1080" preserveAspectRatio="xMidYMid meet" version="1.0"><defs><filter x="0%" y="0%" width="100%" height="100%" id="ec88536469"><feColorMatrix values="0 0 0 0 1 0 0 0 0 1 0 0 0 0 1 0 0 0 1 0" color-interpolation-filters="sRGB"/></filter><clipPath id="2caffe6912"><path d="M 27 0 L 799.363281 0 L 799.363281 810 L 27 810 Z M 27 0 " clip-rule="nonzero"/></clipPath><mask id="0269229d63"><g filter="url(#ec88536469)"><rect x="-81" width="972" fill="#000000" y="-80.999999" height="971.999992" fill-opacity="0.01"/></g></mask><clipPath id="22458dc9bd"><path d="M 0 0 L 810 0 L 810 810 L 0 810 Z M 0 0 " clip-rule="nonzero"/></clipPath><clipPath id="984e4753e6"><rect x="0" width="810" y="0" height="810"/></clipPath></defs><g clip-path="url(#2caffe6912)"><path fill="#faeaff" d="M 32.960938 607.929688 C 54.367188 543.28125 66.78125 541.570312 68.921875 541.996094 C 69.78125 541.996094 139.992188 538.144531 180.234375 513.3125 C 222.617188 486.769531 351.480469 406.285156 378.882812 396.4375 C 393.867188 390.871094 434.109375 391.300781 459.796875 392.585938 L 178.949219 19.695312 C 178.523438 19.265625 178.523438 19.265625 178.523438 18.835938 C 177.664062 13.273438 179.804688 8.132812 184.515625 4.28125 C 189.226562 0.855469 194.789062 0 199.929688 2.140625 L 205.921875 4.710938 C 206.351562 4.710938 206.351562 5.136719 206.777344 5.566406 L 229.894531 35.535156 C 230.324219 35.960938 230.753906 36.390625 230.753906 36.816406 L 504.746094 394.296875 C 515.878906 395.152344 522.730469 395.582031 522.730469 395.582031 C 523.15625 395.582031 523.585938 395.582031 524.011719 396.007812 C 541.996094 409.28125 701.253906 524.445312 706.390625 546.277344 C 711.527344 568.113281 738.5 642.175781 738.5 643.035156 C 738.929688 643.460938 738.5 644.316406 738.074219 644.746094 C 737.644531 645.175781 732.933594 652.453125 721.804688 652.453125 C 718.808594 652.453125 715.808594 652.023438 711.957031 650.738281 C 695.261719 645.601562 622.910156 545.421875 613.0625 531.722656 C 612.207031 531.296875 610.921875 530.867188 608.78125 530.011719 L 785.59375 760.339844 C 786.023438 760.765625 786.449219 761.195312 786.449219 761.621094 L 798.867188 807.003906 C 799.292969 807.859375 798.867188 808.714844 798.007812 809.144531 C 797.582031 809.570312 797.152344 809.570312 796.726562 809.570312 C 796.296875 809.570312 795.867188 809.570312 795.441406 809.144531 L 755.625 785.167969 C 755.199219 785.167969 755.199219 784.742188 755.199219 784.742188 L 655.019531 651.597656 C 651.164062 658.445312 644.742188 663.582031 636.609375 665.296875 C 632.753906 666.152344 628.046875 667.007812 622.050781 667.863281 C 620.339844 685.417969 611.777344 781.316406 595.082031 792.875 C 590.800781 795.871094 586.089844 797.585938 581.382812 797.585938 C 577.527344 797.585938 573.675781 796.726562 570.25 794.585938 C 565.539062 792.019531 562.117188 787.738281 559.546875 783.027344 C 555.265625 791.589844 543.707031 810 530.433594 810 C 529.152344 810 528.292969 810 527.011719 809.570312 C 510.742188 805.71875 509.886719 779.175781 509.027344 745.78125 C 509.027344 740.214844 508.601562 734.652344 508.601562 729.085938 C 508.171875 715.8125 508.601562 703.828125 509.027344 693.980469 C 509.886719 674.285156 509.886719 664.011719 503.464844 662.726562 C 503.464844 662.726562 503.035156 662.726562 503.035156 662.726562 C 475.207031 657.160156 445.667969 652.453125 429.398438 661.015625 C 425.117188 663.582031 419.125 667.007812 412.703125 670.863281 C 378.453125 692.265625 315.519531 730.796875 225.1875 730.796875 C 222.191406 730.796875 219.191406 730.796875 216.195312 730.796875 C 105.3125 727.375 62.074219 723.949219 61.644531 723.949219 C 61.21875 723.949219 60.789062 723.519531 60.359375 723.519531 C 59.933594 723.09375 10.699219 674.285156 32.960938 607.929688 Z M 512.027344 578.816406 C 516.308594 549.703125 518.875 517.167969 515.449219 514.171875 C 495.757812 527.441406 465.789062 556.980469 456.800781 565.972656 C 471.78125 570.253906 491.046875 574.535156 512.027344 578.816406 Z M 516.308594 579.671875 C 530.007812 582.242188 544.5625 584.808594 558.261719 586.949219 C 559.546875 578.816406 563.398438 545.851562 559.546875 525.300781 L 547.132812 509.03125 C 537.285156 506.890625 529.578125 506.890625 525.296875 508.605469 C 523.585938 509.460938 521.015625 510.746094 518.875 512.03125 C 524.011719 521.019531 519.304688 560.40625 516.308594 579.671875 Z M 562.542969 587.378906 C 580.097656 589.945312 597.222656 592.515625 611.347656 594.226562 L 564.683594 532.578125 C 566.824219 553.128906 563.828125 580.101562 562.542969 587.378906 Z M 549.699219 504.75 C 552.699219 505.179688 555.695312 506.464844 557.835938 509.03125 C 560.402344 512.457031 562.542969 517.167969 563.828125 523.160156 L 617.769531 594.65625 C 622.050781 595.085938 625.90625 595.511719 628.902344 595.941406 C 631.042969 595.941406 632.753906 596.367188 634.894531 597.226562 L 213.199219 44.523438 C 211.058594 46.238281 209.347656 48.804688 208.488281 51.375 L 464.933594 392.585938 C 465.359375 393.011719 465.789062 393.441406 465.789062 393.867188 Z M 651.59375 612.210938 L 768.039062 765.046875 C 771.464844 762.90625 775.320312 761.621094 779.171875 760.765625 L 780.457031 760.765625 L 601.074219 526.585938 L 227.328125 39.386719 L 225.1875 39.386719 C 221.761719 39.386719 218.765625 40.242188 216.195312 41.957031 L 643.886719 602.363281 C 646.882812 604.929688 649.453125 608.355469 651.59375 612.210938 Z M 658.015625 637.46875 C 658.015625 640.894531 658.015625 643.890625 657.160156 646.886719 L 756.054688 778.746094 C 757.765625 774.464844 760.761719 770.613281 764.1875 767.617188 L 655.875 625.480469 C 656.730469 629.335938 657.585938 633.1875 658.015625 637.46875 Z M 203.351562 8.132812 L 197.359375 5.566406 C 193.507812 3.851562 189.652344 4.28125 186.226562 6.851562 C 183.230469 9.417969 181.519531 12.84375 181.945312 16.695312 L 205.066406 47.09375 C 208.488281 40.242188 215.769531 35.105469 223.902344 34.675781 Z M 615.628906 527.871094 C 616.058594 527.871094 616.058594 528.296875 616.488281 528.726562 C 638.75 559.980469 700.398438 642.605469 713.667969 646.886719 C 726.085938 650.738281 732.507812 645.601562 734.21875 643.460938 C 730.792969 633.613281 707.25 568.542969 702.109375 547.5625 C 697.828125 530.4375 571.105469 435.394531 521.871094 399.863281 C 520.160156 399.863281 515.449219 399.433594 508.171875 398.578125 L 603.644531 522.734375 C 610.921875 525.730469 615.628906 527.871094 615.628906 527.871094 Z M 782.597656 764.621094 L 780.027344 765.046875 C 770.179688 766.761719 762.902344 773.609375 759.476562 782.601562 L 793.300781 803.148438 Z M 572.820312 790.734375 C 579.242188 794.160156 586.519531 793.730469 592.941406 789.449219 C 605.785156 780.460938 615.203125 701.6875 617.769531 668.722656 C 601.503906 671.289062 580.523438 673.859375 563.828125 673.429688 C 571.105469 685.417969 566.824219 716.671875 563.398438 742.785156 C 562.117188 751.347656 561.257812 758.625 560.832031 764.191406 C 559.976562 775.75 564.683594 786.023438 572.820312 790.734375 Z M 513.738281 693.980469 C 513.308594 704.253906 512.882812 715.386719 513.308594 728.65625 C 513.738281 734.222656 513.738281 739.789062 513.738281 745.355469 C 514.59375 775.75 515.449219 802.292969 528.722656 805.289062 C 540.710938 808.289062 553.980469 786.882812 558.261719 777.464844 C 556.980469 773.183594 556.550781 768.472656 556.980469 763.761719 C 557.40625 758.199219 558.261719 750.917969 559.546875 742.355469 C 562.972656 717.527344 568.539062 676.425781 557.40625 673.003906 C 547.132812 672.144531 533.859375 669.148438 519.730469 666.152344 C 517.164062 665.722656 514.59375 664.867188 511.597656 664.441406 C 514.59375 670.433594 514.167969 680.707031 513.738281 693.980469 Z M 62.929688 720.09375 C 69.351562 720.523438 113.875 723.949219 216.195312 726.515625 C 309.953125 729.085938 375.457031 688.84375 410.132812 667.007812 C 416.554688 662.726562 422.550781 659.300781 427.257812 657.160156 C 448.238281 646.03125 486.765625 654.59375 520.589844 661.871094 C 533.859375 664.867188 546.703125 667.4375 556.550781 668.722656 C 556.980469 668.722656 556.980469 668.722656 557.40625 668.722656 C 557.835938 668.722656 557.835938 668.722656 558.261719 669.148438 C 575.816406 670.863281 601.074219 667.4375 619.484375 664.441406 C 619.910156 664.441406 620.339844 664.011719 620.769531 664.011719 C 626.761719 663.15625 632.328125 661.871094 636.179688 661.015625 C 643.886719 659.730469 649.878906 654.164062 652.449219 646.886719 C 652.449219 646.457031 652.449219 646.03125 652.878906 646.03125 C 653.734375 643.035156 654.160156 640.464844 653.734375 637.46875 C 652.878906 629.761719 651.164062 621.199219 647.738281 614.351562 L 640.890625 605.359375 C 637.464844 602.363281 633.183594 600.648438 628.046875 599.792969 C 625.050781 599.367188 620.769531 598.9375 616.058594 598.507812 C 616.058594 598.507812 616.058594 598.507812 615.628906 598.507812 C 582.238281 594.65625 496.1875 582.667969 452.089844 568.542969 C 452.089844 568.542969 452.089844 568.542969 451.660156 568.542969 C 446.097656 566.828125 440.957031 564.6875 437.105469 562.976562 C 437.105469 562.976562 436.675781 562.976562 436.675781 562.546875 L 405.851562 539.429688 C 404.996094 538.574219 404.570312 537.289062 405.425781 536.433594 C 406.28125 535.574219 407.566406 535.148438 408.421875 536.003906 L 438.816406 559.121094 C 442.242188 560.835938 446.953125 562.546875 451.660156 564.261719 C 457.65625 558.265625 490.191406 526.15625 511.597656 511.171875 C 511.597656 511.171875 512.027344 511.171875 512.027344 510.746094 C 516.308594 507.75 519.730469 505.609375 522.730469 504.324219 C 527.867188 502.183594 535.574219 502.609375 542.421875 503.46875 L 461.507812 396.007812 C 419.980469 394.296875 390.011719 395.582031 378.882812 399.433594 C 351.910156 409.28125 223.472656 489.765625 180.664062 516.3125 C 139.992188 541.570312 70.636719 545.421875 67.640625 545.421875 C 67.640625 545.421875 56.082031 547.5625 35.957031 608.355469 C 16.691406 669.578125 57.792969 714.53125 62.929688 720.09375 Z M 62.929688 720.09375 " fill-opacity="1" fill-rule="nonzero"/></g><path fill="#faeaff" d="M 163.539062 447.8125 L 183.660156 462.367188 C 184.515625 462.796875 184.945312 464.082031 184.515625 464.9375 C 184.085938 465.792969 183.230469 466.222656 181.945312 466.222656 L 157.542969 461.082031 L 142.988281 481.203125 C 142.558594 481.632812 141.703125 482.0625 141.277344 482.0625 C 140.847656 482.0625 140.847656 482.0625 140.417969 482.0625 C 139.5625 481.632812 139.136719 480.777344 139.136719 479.492188 L 144.273438 455.519531 L 124.152344 440.960938 C 123.292969 440.535156 122.867188 439.25 123.292969 438.394531 C 123.722656 437.535156 124.578125 437.109375 125.863281 437.109375 L 150.265625 442.246094 L 164.820312 422.125 C 165.25 421.269531 166.535156 420.839844 167.390625 421.269531 C 168.246094 421.695312 168.675781 422.554688 168.675781 423.835938 Z M 152.835938 445.671875 C 152.40625 446.527344 151.550781 446.527344 150.695312 446.527344 L 134.855469 443.101562 L 148.125 452.519531 C 148.980469 452.949219 148.980469 453.804688 148.980469 454.660156 L 145.558594 470.074219 L 154.976562 457.230469 C 155.402344 456.800781 155.832031 456.375 156.6875 456.375 C 156.6875 456.375 157.117188 456.375 157.117188 456.375 L 172.957031 459.800781 L 159.683594 450.378906 C 158.828125 449.953125 158.828125 449.097656 158.828125 448.238281 L 162.253906 432.398438 Z M 152.835938 445.671875 " fill-opacity="1" fill-rule="nonzero"/><path fill="#faeaff" d="M 598.507812 322.800781 L 604.5 347.203125 C 604.929688 348.058594 604.070312 349.34375 603.214844 349.773438 C 602.789062 349.773438 602.789062 350.199219 602.359375 350.199219 C 601.503906 350.199219 601.074219 349.773438 600.648438 349.34375 L 585.234375 329.652344 L 561.257812 335.644531 C 560.402344 336.074219 559.117188 335.214844 558.691406 334.359375 C 558.261719 333.503906 558.691406 332.21875 559.117188 331.792969 L 578.382812 316.378906 L 572.390625 292.40625 C 571.960938 291.546875 572.820312 290.265625 573.675781 289.835938 C 574.53125 289.40625 575.816406 289.835938 576.242188 290.265625 L 591.65625 309.53125 L 615.628906 303.535156 C 616.488281 303.109375 617.769531 303.964844 618.199219 304.820312 C 618.628906 305.675781 618.199219 306.960938 617.769531 307.390625 Z M 591.65625 314.238281 C 590.800781 314.238281 589.945312 314.238281 589.515625 313.382812 L 579.667969 300.539062 L 583.523438 315.953125 C 583.523438 316.808594 583.523438 317.664062 582.664062 318.09375 L 569.820312 328.367188 L 585.664062 324.515625 C 586.519531 324.515625 587.375 324.515625 587.804688 325.371094 L 597.648438 338.214844 L 593.796875 322.375 C 593.796875 321.515625 593.796875 320.660156 594.652344 320.234375 L 607.496094 309.957031 Z M 591.65625 314.238281 " fill-opacity="1" fill-rule="nonzero"/><path fill="#faeaff" d="M 221.761719 238.460938 C 226.898438 235.035156 232.464844 232.46875 238.457031 230.753906 C 278.703125 217.914062 321.511719 239.746094 334.355469 279.988281 C 347.199219 320.234375 325.367188 363.042969 285.125 375.886719 C 279.128906 378.027344 272.707031 378.886719 266.714844 379.3125 C 295.828125 361.332031 309.953125 324.941406 299.25 291.121094 C 288.546875 257.300781 256.011719 236.320312 221.761719 238.460938 Z M 221.761719 238.460938 " fill-opacity="1" fill-rule="nonzero"/><g mask="url(#0269229d63)"><g transform="matrix(1, 0, 0, 1, 0, 0.000000000000039746)"><g clip-path="url(#984e4753e6)"><g clip-path="url(#22458dc9bd)"><rect x="-178.2" width="1166.4" fill="#faeaff" height="1166.39999" y="-178.199998" fill-opacity="1"/></g></g></g></g></svg>