<svg xmlns="http://www.w3.org/2000/svg" xmlns:xlink="http://www.w3.org/1999/xlink" width="1080" zoomAndPan="magnify" viewBox="0 0 810 809.999993" height="1080" preserveAspectRatio="xMidYMid meet" version="1.0"><defs><filter x="0%" y="0%" width="100%" height="100%" id="d2a0f78706"><feColorMatrix values="0 0 0 0 1 0 0 0 0 1 0 0 0 0 1 0 0 0 1 0" color-interpolation-filters="sRGB"/></filter><mask id="3309017f73"><g filter="url(#d2a0f78706)"><rect x="-81" width="972" fill="#000000" y="-80.999999" height="971.999992" fill-opacity="0.01"/></g></mask><clipPath id="a31112a7af"><path d="M 0 0 L 810 0 L 810 810 L 0 810 Z M 0 0 " clip-rule="nonzero"/></clipPath><clipPath id="33e984cde3"><rect x="0" width="810" y="0" height="810"/></clipPath></defs><path fill="#faeaff" d="M 689.59375 810 L 120.40625 810 C 54.015625 810 0 755.984375 0 689.59375 L 0 120.40625 C 0 54.015625 54.015625 0 120.40625 0 L 689.59375 0 C 755.984375 0 810 54.015625 810 120.40625 L 810 689.59375 C 810 755.984375 755.984375 810 689.59375 810 Z M 120.40625 43.785156 C 78.15625 43.785156 43.785156 78.15625 43.785156 120.40625 L 43.785156 689.59375 C 43.785156 731.84375 78.15625 766.214844 120.40625 766.214844 L 689.59375 766.214844 C 731.84375 766.214844 766.214844 731.84375 766.214844 689.59375 L 766.214844 120.40625 C 766.214844 78.15625 731.84375 43.785156 689.59375 43.785156 Z M 120.40625 43.785156 " fill-opacity="1" fill-rule="nonzero"/><path fill="#faeaff" d="M 405 634.863281 C 278.253906 634.863281 175.136719 531.746094 175.136719 405 C 175.136719 278.253906 278.253906 175.136719 405 175.136719 C 531.746094 175.136719 634.863281 278.253906 634.863281 405 C 634.863281 531.746094 531.746094 634.863281 405 634.863281 Z M 405 218.917969 C 302.394531 218.917969 218.917969 302.394531 218.917969 405 C 218.917969 507.605469 302.394531 591.082031 405 591.082031 C 507.605469 591.082031 591.082031 507.605469 591.082031 405 C 591.082031 302.394531 507.605469 218.917969 405 218.917969 Z M 405 218.917969 " fill-opacity="1" fill-rule="nonzero"/><path fill="#faeaff" d="M 645.8125 240.8125 C 603.5625 240.8125 569.1875 206.4375 569.1875 164.1875 C 569.1875 121.941406 603.5625 87.566406 645.8125 87.566406 C 688.058594 87.566406 722.433594 121.941406 722.433594 164.1875 C 722.433594 206.4375 688.058594 240.8125 645.8125 240.8125 Z M 645.8125 131.351562 C 627.703125 131.351562 612.972656 146.082031 612.972656 164.1875 C 612.972656 182.296875 627.703125 197.027344 645.8125 197.027344 C 663.917969 197.027344 678.648438 182.296875 678.648438 164.1875 C 678.648438 146.082031 663.917969 131.351562 645.8125 131.351562 Z M 645.8125 131.351562 " fill-opacity="1" fill-rule="nonzero"/><g mask="url(#3309017f73)"><g transform="matrix(1, 0, 0, 1, 0, 0.000000000000039746)"><g clip-path="url(#33e984cde3)"><g clip-path="url(#a31112a7af)"><rect x="-178.2" width="1166.4" fill="#faeaff" height="1166.39999" y="-178.199998" fill-opacity="1"/></g></g></g></g></svg>