<svg xmlns="http://www.w3.org/2000/svg" xmlns:xlink="http://www.w3.org/1999/xlink" width="1366" zoomAndPan="magnify" viewBox="0 0 1024.5 110.249996" height="147" preserveAspectRatio="xMidYMid meet" version="1.0"><defs><clipPath id="18c849a3cc"><path d="M 3.210938 10 L 484 10 L 484 101.550781 L 3.210938 101.550781 Z M 3.210938 10 " clip-rule="nonzero"/></clipPath><clipPath id="37da413407"><path d="M 540 10 L 1020.789062 10 L 1020.789062 101.550781 L 540 101.550781 Z M 540 10 " clip-rule="nonzero"/></clipPath></defs><path fill="#31086a" d="M 523.414062 55.992188 C 523.414062 56.75 523.339844 57.496094 523.191406 58.238281 C 523.042969 58.980469 522.828125 59.699219 522.535156 60.398438 C 522.246094 61.09375 521.894531 61.757812 521.472656 62.386719 C 521.054688 63.015625 520.578125 63.597656 520.042969 64.132812 C 519.507812 64.667969 518.925781 65.144531 518.296875 65.5625 C 517.667969 65.984375 517.003906 66.335938 516.308594 66.628906 C 515.609375 66.917969 514.890625 67.132812 514.148438 67.28125 C 513.40625 67.429688 512.65625 67.503906 511.902344 67.503906 C 511.144531 67.503906 510.398438 67.429688 509.65625 67.28125 C 508.914062 67.132812 508.195312 66.917969 507.496094 66.628906 C 506.800781 66.335938 506.136719 65.984375 505.507812 65.5625 C 504.878906 65.144531 504.296875 64.667969 503.761719 64.132812 C 503.226562 63.597656 502.75 63.015625 502.332031 62.386719 C 501.910156 61.757812 501.558594 61.09375 501.265625 60.398438 C 500.976562 59.699219 500.761719 58.980469 500.613281 58.238281 C 500.464844 57.496094 500.390625 56.75 500.390625 55.992188 C 500.390625 55.238281 500.464844 54.488281 500.613281 53.746094 C 500.761719 53.003906 500.976562 52.285156 501.265625 51.585938 C 501.554688 50.890625 501.910156 50.226562 502.332031 49.597656 C 502.75 48.96875 503.226562 48.386719 503.761719 47.851562 C 504.296875 47.316406 504.878906 46.839844 505.507812 46.421875 C 506.136719 46 506.800781 45.648438 507.496094 45.355469 C 508.195312 45.066406 508.914062 44.851562 509.65625 44.703125 C 510.398438 44.554688 511.144531 44.480469 511.902344 44.480469 C 512.65625 44.480469 513.40625 44.554688 514.148438 44.703125 C 514.890625 44.851562 515.609375 45.066406 516.308594 45.355469 C 517.003906 45.648438 517.667969 46 518.296875 46.421875 C 518.925781 46.839844 519.507812 47.316406 520.042969 47.851562 C 520.578125 48.386719 521.054688 48.96875 521.472656 49.597656 C 521.894531 50.226562 522.246094 50.890625 522.535156 51.585938 C 522.828125 52.285156 523.042969 53.003906 523.191406 53.746094 C 523.339844 54.488281 523.414062 55.238281 523.414062 55.992188 Z M 523.414062 55.992188 " fill-opacity="1" fill-rule="nonzero"/><g clip-path="url(#18c849a3cc)"><path fill="#31086a" d="M 480.265625 53.113281 L 108.125 53.113281 C 108.652344 45.015625 101.308594 33.753906 92.980469 25.425781 C 83.617188 16.058594 70.535156 7.9375 62.421875 10.835938 C 61.613281 11.125 60.976562 11.761719 60.6875 12.570312 C 57.773438 20.683594 65.917969 33.761719 75.28125 43.125 C 79.015625 46.863281 83.339844 50.390625 87.707031 53.113281 L 66.324219 53.113281 C 61.4375 46.476562 47.675781 43.476562 35.414062 43.476562 C 22.171875 43.476562 7.164062 46.96875 3.488281 54.761719 C 3.121094 55.542969 3.121094 56.4375 3.488281 57.21875 C 7.164062 65.011719 22.171875 68.503906 35.414062 68.503906 C 47.679688 68.503906 61.4375 65.503906 66.324219 58.867188 L 87.714844 58.867188 C 83.34375 61.589844 79.015625 65.117188 75.28125 68.855469 C 65.917969 78.21875 57.773438 91.300781 60.6875 99.410156 C 60.980469 100.21875 61.613281 100.855469 62.421875 101.144531 C 63.5625 101.554688 64.800781 101.746094 66.113281 101.746094 C 74.136719 101.746094 84.933594 94.597656 92.980469 86.550781 C 101.304688 78.222656 108.652344 66.960938 108.125 58.867188 L 480.265625 58.867188 C 481.855469 58.867188 483.140625 57.578125 483.140625 55.988281 C 483.140625 54.402344 481.855469 53.113281 480.265625 53.113281 Z M 65.851562 15.988281 C 70.652344 15.796875 79.816406 20.410156 88.910156 29.496094 C 98.011719 38.597656 102.617188 47.8125 102.421875 52.566406 C 97.5625 52.804688 88.449219 48.15625 79.351562 39.058594 C 70.382812 30.089844 65.710938 20.722656 65.851562 15.988281 Z M 88.910156 82.484375 C 79.808594 91.585938 70.625 96.128906 65.839844 95.992188 C 65.648438 91.238281 70.253906 82.027344 79.351562 72.925781 C 88.265625 64.007812 97.289062 59.410156 102.125 59.410156 C 102.222656 59.410156 102.320312 59.410156 102.417969 59.414062 C 102.613281 64.171875 98.011719 73.382812 88.910156 82.484375 Z M 35.414062 62.75 C 22.542969 62.75 12.773438 59.492188 9.546875 55.992188 C 12.773438 52.492188 22.542969 49.234375 35.414062 49.234375 C 48.089844 49.234375 58.007812 52.546875 61.261719 55.992188 C 58.007812 59.4375 48.089844 62.75 35.414062 62.75 Z M 35.414062 62.75 " fill-opacity="1" fill-rule="nonzero"/></g><g clip-path="url(#37da413407)"><path fill="#31086a" d="M 1020.316406 54.765625 C 1016.644531 46.96875 1001.636719 43.476562 988.390625 43.476562 C 976.128906 43.476562 962.367188 46.476562 957.476562 53.113281 L 936.09375 53.113281 C 940.460938 50.394531 944.785156 46.863281 948.519531 43.128906 C 957.886719 33.765625 966.03125 20.6875 963.113281 12.570312 C 962.820312 11.761719 962.1875 11.125 961.378906 10.835938 C 953.257812 7.9375 940.1875 16.066406 930.820312 25.425781 C 922.492188 33.753906 915.152344 45.015625 915.675781 53.113281 L 543.292969 53.113281 C 541.703125 53.113281 540.414062 54.402344 540.414062 55.992188 C 540.414062 57.578125 541.703125 58.867188 543.292969 58.867188 L 915.675781 58.867188 C 915.152344 66.964844 922.496094 78.226562 930.820312 86.554688 C 938.871094 94.601562 949.664062 101.746094 957.6875 101.746094 C 959 101.746094 960.238281 101.554688 961.378906 101.148438 C 962.1875 100.855469 962.820312 100.21875 963.113281 99.414062 C 966.03125 91.300781 957.886719 78.21875 948.519531 68.855469 C 944.785156 65.117188 940.460938 61.589844 936.09375 58.867188 L 957.476562 58.867188 C 962.367188 65.503906 976.128906 68.503906 988.390625 68.503906 C 1001.636719 68.503906 1016.644531 65.011719 1020.316406 57.214844 C 1020.683594 56.441406 1020.683594 55.542969 1020.316406 54.765625 Z M 934.894531 29.496094 C 943.992188 20.40625 953.203125 15.816406 957.953125 15.988281 C 958.097656 20.722656 953.425781 30.085938 944.453125 39.058594 C 935.484375 48.027344 926.007812 52.714844 921.382812 52.554688 C 921.199219 47.792969 925.800781 38.59375 934.894531 29.496094 Z M 957.960938 95.996094 C 953.179688 96.164062 943.988281 91.582031 934.890625 82.488281 C 925.800781 73.390625 921.195312 64.191406 921.382812 59.429688 C 926.003906 59.273438 935.484375 63.957031 944.453125 72.929688 C 953.554688 82.027344 958.15625 91.238281 957.960938 95.996094 Z M 988.390625 62.75 C 975.71875 62.75 965.800781 59.4375 962.542969 55.992188 C 965.800781 52.546875 975.71875 49.234375 988.390625 49.234375 C 1001.070312 49.234375 1010.988281 52.546875 1014.238281 55.992188 C 1010.988281 59.4375 1001.070312 62.75 988.390625 62.75 Z M 988.390625 62.75 " fill-opacity="1" fill-rule="nonzero"/></g></svg>